<svg width="24" height="24" fill="none" viewBox="0 0 24 24">
  <g stroke="currentColor" stroke-linecap="round" stroke-linejoin="round" stroke-width="2">
    <path d="M21 12a9 9 0 1 1-18 0 9 9 0 0 1 18 0Z"/>
    <path d="M10.303 9.697c.594-.594.891-.891 1.233-1.002a1.5 1.5 0 0 1 .928 0c.342.111.639.408 1.233 1.002l.606.606c.594.594.891.891 1.002 1.233a1.5 1.5 0 0 1 0 .928c-.111.342-.408.639-1.002 1.233l-.606.606c-.594.594-.891.891-1.233 1.002a1.5 1.5 0 0 1-.928 0c-.342-.111-.639-.408-1.233-1.002l-.606-.606c-.594-.594-.891-.891-1.002-1.233a1.5 1.5 0 0 1 0-.928c.111-.342.408-.639 1.002-1.233l.606-.606Z"/>
  </g>
</svg>
