<svg width="24" height="24" fill="none" viewBox="0 0 24 24">
  <path stroke="currentColor" stroke-linecap="round" stroke-linejoin="round" stroke-width="2" d="M18.364 5.636A8.972 8.972 0 0 0 12 3a8.972 8.972 0 0 0-6.364 2.636m12.728 0A8.972 8.972 0 0 1 21 12a8.972 8.972 0 0 1-2.636 6.364m0-12.728-4.243 4.243m0 0A2.99 2.99 0 0 0 12 9a2.99 2.99 0 0 0-2.121.879m4.242 0A2.99 2.99 0 0 1 15 12a2.99 2.99 0 0 1-.879 2.121M9.88 9.88A2.99 2.99 0 0 0 9 12c0 .828.336 1.578.879 2.121m0-4.242L5.636 5.636m4.243 8.485A2.99 2.99 0 0 0 12 15a2.99 2.99 0 0 0 2.121-.879m-4.242 0-4.243 4.243m8.485-4.243 4.243 4.243m0 0A8.972 8.972 0 0 1 12 21a8.972 8.972 0 0 1-6.364-2.636m0 0A8.972 8.972 0 0 1 3 12a8.972 8.972 0 0 1 2.636-6.364"/>
</svg>
