<svg width="100%" height="100%" viewBox="0 0 303 498" fill="none" xmlns="http://www.w3.org/2000/svg">
<rect x="158.779" y="12.197" width="99.7924" height="99.7924" fill="#FCBD1A"/>
<path fill-rule="evenodd" clip-rule="evenodd" d="M205.831 2.81464L128.842 12.6653L141.507 111.651L240.492 98.9857L227.827 0.000169734L227.827 0.000186195L230.642 21.9968L205.831 2.81464Z" fill="#90DF0E"/>
<path fill-rule="evenodd" clip-rule="evenodd" d="M227.827 -1.62658e-05L205.83 2.81445L208.645 24.8112L230.641 21.9968L230.641 21.9966L205.83 2.81454L227.827 0.000101004L227.827 -1.62658e-05Z" fill="#C0FC5D"/>
<g clip-path="url(#clip0_1342_8518)">
<path d="M0 37.8438C0 34.8994 2.38694 32.5125 5.33138 32.5125H271.012C288.678 32.5125 303 46.8341 303 64.5007V465.594C303 483.261 288.678 497.582 271.012 497.582H5.33139C2.38695 497.582 0 495.195 0 492.251V37.8438Z" fill="#1E252F"/>
<g filter="url(#filter0_ii_1342_8518)">
<rect x="8.45605" y="32.5125" width="7.04651" height="466.479" fill="#252525" fill-opacity="0.01"/>
</g>
<path d="M104.458 126.269H94.837V99.1275H104.538C107.268 99.1275 109.618 99.6708 111.588 100.758C113.559 101.835 115.074 103.386 116.134 105.409C117.203 107.433 117.738 109.853 117.738 112.672C117.738 115.499 117.203 117.929 116.134 119.961C115.074 121.993 113.55 123.552 111.562 124.639C109.583 125.726 107.215 126.269 104.458 126.269ZM100.575 121.352H104.22C105.916 121.352 107.343 121.052 108.501 120.451C109.667 119.841 110.541 118.901 111.125 117.628C111.717 116.347 112.012 114.695 112.012 112.672C112.012 110.666 111.717 109.027 111.125 107.755C110.541 106.483 109.671 105.546 108.514 104.945C107.356 104.345 105.93 104.044 104.233 104.044H100.575V121.352ZM127.96 126.269V99.1275H146.248V103.859H133.698V110.326H145.307V115.057H133.698V121.538H146.301V126.269H127.96ZM171.506 106.933C171.4 105.864 170.944 105.034 170.14 104.442C169.336 103.85 168.245 103.554 166.867 103.554C165.931 103.554 165.14 103.686 164.495 103.951C163.85 104.208 163.355 104.566 163.011 105.025C162.675 105.484 162.507 106.006 162.507 106.589C162.489 107.075 162.591 107.499 162.812 107.861C163.041 108.223 163.355 108.537 163.753 108.802C164.15 109.058 164.61 109.283 165.131 109.478C165.652 109.663 166.209 109.822 166.801 109.955L169.239 110.538C170.423 110.803 171.51 111.157 172.499 111.598C173.489 112.04 174.346 112.583 175.071 113.228C175.795 113.873 176.356 114.633 176.754 115.508C177.16 116.383 177.368 117.385 177.376 118.516C177.368 120.177 176.944 121.617 176.104 122.837C175.274 124.047 174.072 124.988 172.499 125.659C170.936 126.322 169.049 126.653 166.841 126.653C164.649 126.653 162.741 126.318 161.115 125.646C159.499 124.975 158.235 123.981 157.325 122.664C156.424 121.339 155.951 119.7 155.907 117.748H161.46C161.522 118.658 161.782 119.417 162.242 120.027C162.71 120.628 163.333 121.083 164.111 121.392C164.897 121.692 165.785 121.843 166.774 121.843C167.746 121.843 168.59 121.701 169.306 121.419C170.03 121.136 170.591 120.743 170.989 120.239C171.386 119.735 171.585 119.157 171.585 118.503C171.585 117.893 171.404 117.381 171.042 116.966C170.688 116.55 170.167 116.197 169.478 115.905C168.798 115.614 167.963 115.349 166.973 115.11L164.018 114.368C161.729 113.811 159.923 112.941 158.597 111.757C157.272 110.573 156.614 108.979 156.623 106.973C156.614 105.33 157.051 103.894 157.935 102.666C158.827 101.438 160.051 100.479 161.606 99.7901C163.161 99.101 164.928 98.7564 166.907 98.7564C168.921 98.7564 170.679 99.101 172.181 99.7901C173.692 100.479 174.867 101.438 175.707 102.666C176.546 103.894 176.979 105.316 177.005 106.933H171.506ZM187.207 126.269V99.1275H192.946V111.095H193.304L203.071 99.1275H209.949L199.877 111.28L210.068 126.269H203.204L195.769 115.11L192.946 118.556V126.269H187.207ZM100.832 144.127V171.269H95.8753L84.0671 154.186H83.8683V171.269H78.1299V144.127H83.1659L94.8813 161.197H95.1199V144.127H100.832ZM136.486 157.698C136.486 160.658 135.925 163.176 134.803 165.252C133.689 167.329 132.17 168.914 130.244 170.01C128.326 171.097 126.171 171.64 123.776 171.64C121.364 171.64 119.2 171.092 117.283 169.997C115.365 168.901 113.85 167.315 112.737 165.239C111.624 163.163 111.067 160.649 111.067 157.698C111.067 154.738 111.624 152.22 112.737 150.144C113.85 148.068 115.365 146.486 117.283 145.4C119.2 144.304 121.364 143.756 123.776 143.756C126.171 143.756 128.326 144.304 130.244 145.4C132.17 146.486 133.689 148.068 134.803 150.144C135.925 152.22 136.486 154.738 136.486 157.698ZM130.668 157.698C130.668 155.781 130.381 154.164 129.806 152.848C129.241 151.531 128.441 150.533 127.408 149.853C126.374 149.172 125.163 148.832 123.776 148.832C122.389 148.832 121.179 149.172 120.145 149.853C119.111 150.533 118.307 151.531 117.733 152.848C117.168 154.164 116.885 155.781 116.885 157.698C116.885 159.615 117.168 161.232 117.733 162.549C118.307 163.865 119.111 164.864 120.145 165.544C121.179 166.224 122.389 166.564 123.776 166.564C125.163 166.564 126.374 166.224 127.408 165.544C128.441 164.864 129.241 163.865 129.806 162.549C130.381 161.232 130.668 159.615 130.668 157.698ZM144.435 148.859V144.127H166.726V148.859H158.416V171.269H152.744V148.859H144.435ZM176.368 171.269V144.127H194.657V148.859H182.106V155.326H193.716V160.057H182.106V166.538H194.71V171.269H176.368ZM219.914 151.933C219.808 150.864 219.353 150.034 218.549 149.442C217.745 148.85 216.654 148.554 215.275 148.554C214.339 148.554 213.548 148.686 212.903 148.951C212.258 149.208 211.764 149.566 211.419 150.025C211.083 150.484 210.915 151.006 210.915 151.589C210.898 152.075 210.999 152.499 211.22 152.861C211.45 153.223 211.764 153.537 212.161 153.802C212.559 154.058 213.018 154.283 213.539 154.478C214.061 154.663 214.617 154.822 215.209 154.955L217.648 155.538C218.832 155.803 219.918 156.157 220.908 156.598C221.897 157.04 222.754 157.583 223.479 158.228C224.203 158.873 224.764 159.633 225.162 160.508C225.568 161.383 225.776 162.385 225.785 163.516C225.776 165.177 225.352 166.617 224.513 167.837C223.682 169.047 222.481 169.988 220.908 170.659C219.344 171.322 217.458 171.653 215.249 171.653C213.058 171.653 211.149 171.318 209.524 170.646C207.907 169.975 206.644 168.981 205.734 167.664C204.832 166.339 204.36 164.7 204.315 162.748H209.868C209.93 163.658 210.191 164.417 210.65 165.027C211.119 165.628 211.741 166.083 212.519 166.392C213.305 166.692 214.193 166.843 215.183 166.843C216.155 166.843 216.998 166.701 217.714 166.419C218.438 166.136 218.999 165.743 219.397 165.239C219.795 164.735 219.993 164.157 219.993 163.503C219.993 162.893 219.812 162.381 219.45 161.966C219.097 161.55 218.575 161.197 217.886 160.905C217.206 160.614 216.371 160.349 215.381 160.11L212.426 159.368C210.138 158.811 208.331 157.941 207.006 156.757C205.681 155.573 205.022 153.979 205.031 151.973C205.022 150.33 205.46 148.894 206.343 147.666C207.235 146.438 208.459 145.479 210.014 144.79C211.569 144.101 213.336 143.756 215.315 143.756C217.33 143.756 219.088 144.101 220.59 144.79C222.101 145.479 223.276 146.438 224.115 147.666C224.954 148.894 225.387 150.316 225.414 151.933H219.914Z" fill="white" fill-opacity="0.49"/>
<g filter="url(#filter1_d_1342_8518)">
<rect x="-13.3281" y="195.12" width="339.431" height="107.516" fill="#BE9662"/>
<path d="M95.3426 211.727C95.3095 211.416 95.1698 211.175 94.9236 211.002C94.6797 210.829 94.3625 210.743 93.9719 210.743C93.6972 210.743 93.4617 210.784 93.2652 210.867C93.0687 210.95 92.9184 211.062 92.8142 211.205C92.71 211.347 92.6568 211.509 92.6544 211.691C92.6544 211.843 92.6887 211.974 92.7574 212.085C92.8284 212.196 92.9243 212.291 93.045 212.369C93.1657 212.445 93.2995 212.509 93.4463 212.561C93.5931 212.613 93.741 212.657 93.8902 212.692L94.572 212.863C94.8466 212.927 95.1106 213.013 95.3639 213.122C95.6196 213.231 95.848 213.368 96.0493 213.534C96.2529 213.7 96.4139 213.9 96.5322 214.134C96.6506 214.369 96.7098 214.643 96.7098 214.958C96.7098 215.384 96.6009 215.759 96.3831 216.084C96.1653 216.406 95.8504 216.658 95.4385 216.84C95.0289 217.02 94.5329 217.11 93.9506 217.11C93.3847 217.11 92.8935 217.022 92.4768 216.847C92.0625 216.672 91.7382 216.416 91.5038 216.08C91.2718 215.744 91.1463 215.335 91.1274 214.852H92.4236C92.4425 215.105 92.5206 215.316 92.6579 215.484C92.7952 215.652 92.974 215.777 93.1942 215.86C93.4167 215.943 93.6653 215.984 93.9399 215.984C94.2264 215.984 94.4773 215.942 94.6927 215.857C94.9105 215.769 95.081 215.648 95.2041 215.494C95.3272 215.338 95.3899 215.156 95.3923 214.947C95.3899 214.758 95.3343 214.602 95.2254 214.479C95.1165 214.353 94.9638 214.249 94.7673 214.166C94.5732 214.081 94.3459 214.005 94.0855 213.939L93.2581 213.726C92.6591 213.572 92.1856 213.339 91.8376 213.026C91.492 212.711 91.3192 212.294 91.3192 211.773C91.3192 211.344 91.4352 210.969 91.6672 210.647C91.9015 210.325 92.22 210.075 92.6224 209.898C93.0249 209.718 93.4806 209.628 93.9896 209.628C94.5057 209.628 94.9579 209.718 95.3461 209.898C95.7368 210.075 96.0434 210.323 96.2659 210.64C96.4884 210.955 96.6032 211.317 96.6104 211.727H95.3426ZM97.8843 217V209.727H102.614V210.832H99.2018V212.806H102.369V213.911H99.2018V215.896H102.643V217H97.8843ZM103.639 210.832V209.727H109.441V210.832H107.194V217H105.887V210.832H103.639ZM119.539 213.364C119.539 214.147 119.392 214.818 119.099 215.377C118.808 215.933 118.41 216.36 117.906 216.656C117.404 216.951 116.834 217.099 116.198 217.099C115.561 217.099 114.99 216.951 114.486 216.656C113.984 216.357 113.586 215.93 113.293 215.374C113.002 214.815 112.856 214.145 112.856 213.364C112.856 212.58 113.002 211.91 113.293 211.354C113.586 210.795 113.984 210.368 114.486 210.072C114.99 209.776 115.561 209.628 116.198 209.628C116.834 209.628 117.404 209.776 117.906 210.072C118.41 210.368 118.808 210.795 119.099 211.354C119.392 211.91 119.539 212.58 119.539 213.364ZM118.215 213.364C118.215 212.812 118.128 212.347 117.955 211.968C117.785 211.587 117.548 211.299 117.245 211.105C116.942 210.909 116.593 210.81 116.198 210.81C115.802 210.81 115.453 210.909 115.15 211.105C114.847 211.299 114.609 211.587 114.436 211.968C114.266 212.347 114.18 212.812 114.18 213.364C114.18 213.915 114.266 214.382 114.436 214.763C114.609 215.142 114.847 215.429 115.15 215.626C115.453 215.82 115.802 215.917 116.198 215.917C116.593 215.917 116.942 215.82 117.245 215.626C117.548 215.429 117.785 215.142 117.955 214.763C118.128 214.382 118.215 213.915 118.215 213.364ZM120.785 217V209.727H125.444V210.832H122.102V212.806H125.124V213.911H122.102V217H120.785ZM128.805 210.832V209.727H134.608V210.832H132.36V217H131.053V210.832H128.805ZM137.257 217L135.204 209.727H136.621L137.931 215.072H137.999L139.398 209.727H140.687L142.09 215.075H142.154L143.464 209.727H144.881L142.828 217H141.529L140.073 211.897H140.016L138.556 217H137.257ZM151.902 213.364C151.902 214.147 151.756 214.818 151.462 215.377C151.171 215.933 150.773 216.36 150.269 216.656C149.767 216.951 149.198 217.099 148.561 217.099C147.924 217.099 147.353 216.951 146.849 216.656C146.347 216.357 145.95 215.93 145.656 215.374C145.365 214.815 145.219 214.145 145.219 213.364C145.219 212.58 145.365 211.91 145.656 211.354C145.95 210.795 146.347 210.368 146.849 210.072C147.353 209.776 147.924 209.628 148.561 209.628C149.198 209.628 149.767 209.776 150.269 210.072C150.773 210.368 151.171 210.795 151.462 211.354C151.756 211.91 151.902 212.58 151.902 213.364ZM150.578 213.364C150.578 212.812 150.491 212.347 150.319 211.968C150.148 211.587 149.911 211.299 149.608 211.105C149.305 210.909 148.956 210.81 148.561 210.81C148.165 210.81 147.816 210.909 147.513 211.105C147.21 211.299 146.972 211.587 146.799 211.968C146.629 212.347 146.544 212.812 146.544 213.364C146.544 213.915 146.629 214.382 146.799 214.763C146.972 215.142 147.21 215.429 147.513 215.626C147.816 215.82 148.165 215.917 148.561 215.917C148.956 215.917 149.305 215.82 149.608 215.626C149.911 215.429 150.148 215.142 150.319 214.763C150.491 214.382 150.578 213.915 150.578 213.364ZM155.628 217V209.727H158.356C158.914 209.727 159.383 209.831 159.762 210.04C160.143 210.248 160.431 210.535 160.625 210.899C160.821 211.261 160.92 211.673 160.92 212.135C160.92 212.601 160.821 213.016 160.625 213.378C160.428 213.74 160.138 214.025 159.755 214.234C159.371 214.44 158.899 214.543 158.338 214.543H156.53V213.46H158.16C158.487 213.46 158.755 213.403 158.963 213.289C159.171 213.175 159.325 213.019 159.425 212.82C159.526 212.621 159.577 212.393 159.577 212.135C159.577 211.877 159.526 211.65 159.425 211.453C159.325 211.257 159.17 211.104 158.959 210.995C158.751 210.884 158.482 210.828 158.153 210.828H156.946V217H155.628ZM163.381 209.727V217H162.064V209.727H163.381ZM164.489 210.832V209.727H170.291V210.832H168.043V217H166.736V210.832H164.489ZM177.313 212.181H175.984C175.947 211.963 175.877 211.77 175.775 211.602C175.673 211.432 175.546 211.287 175.395 211.169C175.243 211.051 175.071 210.962 174.877 210.903C174.685 210.841 174.478 210.81 174.255 210.81C173.86 210.81 173.509 210.91 173.204 211.109C172.899 211.305 172.659 211.594 172.487 211.975C172.314 212.354 172.227 212.817 172.227 213.364C172.227 213.92 172.314 214.389 172.487 214.77C172.662 215.149 172.901 215.435 173.204 215.629C173.509 215.821 173.859 215.917 174.252 215.917C174.469 215.917 174.673 215.888 174.862 215.832C175.054 215.772 175.226 215.686 175.377 215.572C175.531 215.459 175.66 215.319 175.764 215.153C175.871 214.988 175.944 214.798 175.984 214.585L177.313 214.592C177.263 214.938 177.155 215.262 176.989 215.565C176.826 215.868 176.612 216.136 176.347 216.368C176.082 216.598 175.771 216.777 175.416 216.908C175.061 217.036 174.667 217.099 174.234 217.099C173.595 217.099 173.024 216.951 172.522 216.656C172.02 216.36 171.625 215.932 171.336 215.374C171.047 214.815 170.903 214.145 170.903 213.364C170.903 212.58 171.048 211.91 171.34 211.354C171.631 210.795 172.027 210.368 172.529 210.072C173.031 209.776 173.599 209.628 174.234 209.628C174.639 209.628 175.015 209.685 175.363 209.798C175.711 209.912 176.021 210.079 176.293 210.299C176.566 210.517 176.789 210.784 176.965 211.102C177.142 211.416 177.258 211.776 177.313 212.181ZM178.519 217V209.727H179.837V212.806H183.207V209.727H184.528V217H183.207V213.911H179.837V217H178.519ZM188.441 217V209.727H191.225C191.751 209.727 192.187 209.81 192.535 209.976C192.886 210.139 193.147 210.363 193.32 210.647C193.495 210.931 193.583 211.253 193.583 211.613C193.583 211.909 193.526 212.162 193.413 212.373C193.299 212.581 193.146 212.75 192.954 212.881C192.763 213.011 192.548 213.104 192.312 213.161V213.232C192.57 213.246 192.817 213.326 193.054 213.47C193.293 213.612 193.488 213.813 193.64 214.074C193.791 214.334 193.867 214.649 193.867 215.018C193.867 215.395 193.776 215.733 193.594 216.034C193.411 216.332 193.137 216.568 192.77 216.741C192.403 216.914 191.941 217 191.385 217H188.441ZM189.758 215.899H191.175C191.654 215.899 191.998 215.808 192.209 215.626C192.422 215.441 192.528 215.204 192.528 214.915C192.528 214.7 192.475 214.506 192.369 214.333C192.262 214.158 192.11 214.021 191.914 213.921C191.717 213.819 191.483 213.768 191.211 213.768H189.758V215.899ZM189.758 212.82H191.062C191.289 212.82 191.494 212.779 191.676 212.696C191.858 212.611 192.002 212.491 192.106 212.337C192.212 212.181 192.266 211.996 192.266 211.783C192.266 211.502 192.166 211.27 191.967 211.087C191.771 210.905 191.478 210.814 191.09 210.814H189.758V212.82ZM195.013 217V209.727H196.331V215.896H199.534V217H195.013ZM201.885 217H200.478L203.039 209.727H204.665L207.229 217H205.823L203.88 211.219H203.824L201.885 217ZM201.931 214.148H205.766V215.207H201.931V214.148ZM214.07 212.181H212.742C212.704 211.963 212.635 211.77 212.533 211.602C212.431 211.432 212.304 211.287 212.153 211.169C212.001 211.051 211.828 210.962 211.634 210.903C211.443 210.841 211.235 210.81 211.013 210.81C210.618 210.81 210.267 210.91 209.962 211.109C209.656 211.305 209.417 211.594 209.244 211.975C209.072 212.354 208.985 212.817 208.985 213.364C208.985 213.92 209.072 214.389 209.244 214.77C209.42 215.149 209.659 215.435 209.962 215.629C210.267 215.821 210.616 215.917 211.009 215.917C211.227 215.917 211.431 215.888 211.62 215.832C211.812 215.772 211.984 215.686 212.135 215.572C212.289 215.459 212.418 215.319 212.522 215.153C212.629 214.988 212.702 214.798 212.742 214.585L214.07 214.592C214.021 214.938 213.913 215.262 213.747 215.565C213.584 215.868 213.37 216.136 213.104 216.368C212.839 216.598 212.529 216.777 212.174 216.908C211.819 217.036 211.425 217.099 210.992 217.099C210.352 217.099 209.782 216.951 209.28 216.656C208.778 216.36 208.383 215.932 208.094 215.374C207.805 214.815 207.661 214.145 207.661 213.364C207.661 212.58 207.806 211.91 208.097 211.354C208.389 210.795 208.785 210.368 209.287 210.072C209.789 209.776 210.357 209.628 210.992 209.628C211.396 209.628 211.773 209.685 212.121 209.798C212.469 209.912 212.779 210.079 213.051 210.299C213.323 210.517 213.547 210.784 213.722 211.102C213.9 211.416 214.016 211.776 214.07 212.181ZM215.277 217V209.727H216.594V213.069H216.683L219.521 209.727H221.129L218.317 212.991L221.154 217H219.57L217.4 213.882L216.594 214.834V217H215.277Z" fill="black" fill-opacity="0.71"/>
<path d="M79.1847 242H72.4688V224.545H79.1165C80.9119 224.545 82.4631 224.895 83.7699 225.594C85.0824 226.287 86.0938 227.287 86.804 228.594C87.5199 229.895 87.8778 231.455 87.8778 233.273C87.8778 235.091 87.5227 236.653 86.8125 237.96C86.1023 239.261 85.0966 240.261 83.7955 240.96C82.4943 241.653 80.9574 242 79.1847 242ZM77.2074 237.977H79.0142C79.8778 237.977 80.6136 237.838 81.2216 237.56C81.8352 237.281 82.3011 236.801 82.6193 236.119C82.9432 235.437 83.1051 234.489 83.1051 233.273C83.1051 232.057 82.9403 231.108 82.6108 230.426C82.2869 229.744 81.8097 229.264 81.179 228.986C80.554 228.707 79.7869 228.568 78.8778 228.568H77.2074V237.977ZM90.0703 242V224.545H102.65V228.364H94.8089V231.364H102.002V235.182H94.8089V238.182H102.616V242H90.0703ZM109.773 224.545L113.352 236.852H113.489L117.068 224.545H122.42L116.659 242H110.182L104.42 224.545H109.773ZM134.576 242.273C133.326 242.273 132.249 242.051 131.346 241.608C130.442 241.165 129.749 240.571 129.266 239.827C128.783 239.082 128.542 238.261 128.542 237.364C128.542 236.71 128.667 236.134 128.917 235.634C129.167 235.128 129.516 234.665 129.965 234.244C130.414 233.824 130.94 233.409 131.542 233L135.496 230.545C135.894 230.295 136.164 230.037 136.306 229.77C136.448 229.497 136.519 229.256 136.519 229.045C136.519 228.767 136.417 228.52 136.212 228.304C136.008 228.088 135.69 227.983 135.258 227.989C134.991 227.989 134.761 228.04 134.567 228.142C134.374 228.239 134.224 228.375 134.116 228.551C134.013 228.727 133.962 228.937 133.962 229.182C133.962 229.517 134.059 229.861 134.252 230.213C134.445 230.56 134.71 230.935 135.045 231.338C135.38 231.741 135.758 232.193 136.178 232.693L144.633 242H139.928L132.837 234.5C132.491 234.131 132.107 233.679 131.687 233.145C131.266 232.605 130.903 231.997 130.596 231.321C130.295 230.645 130.144 229.909 130.144 229.114C130.144 228.227 130.357 227.418 130.783 226.685C131.21 225.952 131.806 225.366 132.573 224.929C133.34 224.491 134.235 224.273 135.258 224.273C136.235 224.273 137.076 224.474 137.781 224.878C138.491 225.281 139.036 225.818 139.417 226.489C139.803 227.159 139.996 227.898 139.996 228.705C139.996 229.517 139.795 230.276 139.391 230.98C138.994 231.685 138.423 232.301 137.678 232.83L134.065 235.386C133.786 235.58 133.545 235.801 133.34 236.051C133.141 236.301 133.042 236.625 133.042 237.023C133.042 237.352 133.119 237.634 133.272 237.866C133.425 238.099 133.641 238.278 133.92 238.403C134.204 238.528 134.536 238.591 134.917 238.591C135.496 238.591 136.076 238.452 136.656 238.173C137.241 237.889 137.775 237.494 138.258 236.989C138.741 236.477 139.127 235.875 139.417 235.182C139.712 234.483 139.86 233.722 139.86 232.898H143.576C143.576 233.909 143.471 234.884 143.261 235.821C143.05 236.759 142.712 237.616 142.246 238.395C141.781 239.173 141.167 239.83 140.406 240.364C140.167 240.483 139.934 240.597 139.707 240.705C139.479 240.812 139.246 240.926 139.008 241.045C138.309 241.494 137.579 241.812 136.817 242C136.056 242.182 135.309 242.273 134.576 242.273ZM157.114 242H150.398V224.545H157.046C158.842 224.545 160.393 224.895 161.7 225.594C163.012 226.287 164.023 227.287 164.734 228.594C165.45 229.895 165.808 231.455 165.808 233.273C165.808 235.091 165.452 236.653 164.742 237.96C164.032 239.261 163.026 240.261 161.725 240.96C160.424 241.653 158.887 242 157.114 242ZM155.137 237.977H156.944C157.808 237.977 158.543 237.838 159.151 237.56C159.765 237.281 160.231 236.801 160.549 236.119C160.873 235.437 161.035 234.489 161.035 233.273C161.035 232.057 160.87 231.108 160.54 230.426C160.217 229.744 159.739 229.264 159.109 228.986C158.484 228.707 157.717 228.568 156.808 228.568H155.137V237.977ZM168 242V224.545H180.58V228.364H172.739V231.364H179.932V235.182H172.739V238.182H180.545V242H168ZM192.339 230C192.293 229.432 192.08 228.989 191.7 228.67C191.325 228.352 190.754 228.193 189.987 228.193C189.498 228.193 189.097 228.253 188.785 228.372C188.478 228.486 188.251 228.642 188.103 228.841C187.955 229.04 187.879 229.267 187.873 229.523C187.862 229.733 187.898 229.923 187.984 230.094C188.075 230.259 188.217 230.409 188.41 230.545C188.603 230.676 188.85 230.795 189.151 230.903C189.452 231.011 189.81 231.108 190.225 231.193L191.657 231.5C192.623 231.705 193.45 231.974 194.137 232.31C194.825 232.645 195.387 233.04 195.825 233.494C196.262 233.943 196.583 234.449 196.788 235.011C196.998 235.574 197.106 236.187 197.112 236.852C197.106 238 196.819 238.972 196.251 239.767C195.683 240.562 194.87 241.168 193.813 241.582C192.762 241.997 191.498 242.205 190.021 242.205C188.504 242.205 187.18 241.98 186.049 241.531C184.924 241.082 184.049 240.392 183.424 239.46C182.805 238.523 182.492 237.324 182.487 235.864H186.987C187.015 236.398 187.148 236.847 187.387 237.21C187.626 237.574 187.961 237.849 188.393 238.037C188.83 238.224 189.35 238.318 189.952 238.318C190.458 238.318 190.881 238.256 191.222 238.131C191.563 238.006 191.822 237.832 191.998 237.611C192.174 237.389 192.265 237.136 192.271 236.852C192.265 236.585 192.177 236.352 192.006 236.153C191.842 235.949 191.569 235.767 191.188 235.608C190.808 235.443 190.293 235.29 189.646 235.148L187.907 234.773C186.362 234.437 185.143 233.878 184.251 233.094C183.364 232.304 182.924 231.227 182.93 229.864C182.924 228.756 183.219 227.787 183.816 226.957C184.418 226.122 185.251 225.472 186.313 225.006C187.381 224.54 188.606 224.307 189.987 224.307C191.396 224.307 192.614 224.543 193.643 225.014C194.671 225.486 195.464 226.151 196.021 227.009C196.583 227.861 196.867 228.858 196.873 230H192.339ZM203.653 224.545V242H198.914V224.545H203.653ZM217.234 230.307C217.16 230.006 217.043 229.741 216.884 229.514C216.725 229.281 216.526 229.085 216.288 228.926C216.055 228.761 215.782 228.639 215.469 228.56C215.163 228.474 214.825 228.432 214.455 228.432C213.66 228.432 212.981 228.622 212.418 229.003C211.862 229.384 211.435 229.932 211.14 230.648C210.85 231.364 210.705 232.227 210.705 233.239C210.705 234.261 210.844 235.136 211.123 235.864C211.401 236.591 211.816 237.148 212.367 237.534C212.918 237.92 213.603 238.114 214.421 238.114C215.143 238.114 215.742 238.009 216.219 237.798C216.702 237.588 217.063 237.29 217.302 236.903C217.54 236.517 217.66 236.062 217.66 235.54L218.478 235.625H214.489V232.25H222.228V234.67C222.228 236.261 221.89 237.622 221.214 238.753C220.543 239.878 219.617 240.741 218.435 241.344C217.259 241.94 215.91 242.239 214.387 242.239C212.688 242.239 211.197 241.878 209.913 241.156C208.629 240.435 207.626 239.406 206.904 238.071C206.188 236.736 205.83 235.148 205.83 233.307C205.83 231.864 206.049 230.585 206.487 229.472C206.93 228.358 207.543 227.418 208.327 226.651C209.112 225.878 210.018 225.295 211.046 224.903C212.075 224.506 213.177 224.307 214.353 224.307C215.387 224.307 216.347 224.455 217.234 224.75C218.126 225.04 218.913 225.455 219.594 225.994C220.282 226.528 220.836 227.162 221.256 227.895C221.677 228.628 221.933 229.432 222.023 230.307H217.234ZM239.54 224.545V242H235.585L229.278 232.83H229.176V242H224.438V224.545H228.46L234.665 233.682H234.801V224.545H239.54Z" fill="black" fill-opacity="0.71"/>
<path d="M104.489 252.78C104.774 252.78 105.033 252.821 105.267 252.904C105.502 252.985 105.712 253.089 105.899 253.217C106.089 253.344 106.254 253.477 106.396 253.614C106.463 253.676 106.521 253.735 106.57 253.792C106.622 253.846 106.673 253.902 106.723 253.959C106.768 253.902 106.815 253.846 106.865 253.792C106.915 253.737 106.974 253.678 107.043 253.614C107.258 253.406 107.526 253.215 107.845 253.043C108.167 252.867 108.538 252.78 108.957 252.78C109.354 252.78 109.717 252.876 110.043 253.067C110.37 253.259 110.629 253.516 110.821 253.838C111.015 254.16 111.112 254.515 111.112 254.903C111.112 255.197 111.057 255.473 110.945 255.731C110.834 255.989 110.679 256.215 110.48 256.409C110.284 256.603 110.055 256.755 109.795 256.864C109.534 256.973 109.255 257.027 108.957 257.027C108.673 257.027 108.413 256.988 108.179 256.91C107.945 256.829 107.734 256.728 107.547 256.604C107.36 256.481 107.195 256.353 107.053 256.221C106.982 256.152 106.921 256.089 106.869 256.033C106.817 255.976 106.768 255.919 106.723 255.862C106.671 255.921 106.619 255.981 106.567 256.04C106.515 256.097 106.456 256.157 106.389 256.221C106.252 256.349 106.09 256.475 105.903 256.601C105.716 256.724 105.504 256.826 105.267 256.906C105.033 256.987 104.774 257.027 104.489 257.027C104.092 257.027 103.729 256.932 103.403 256.743C103.076 256.551 102.816 256.295 102.622 255.976C102.427 255.654 102.33 255.296 102.33 254.903C102.33 254.612 102.386 254.339 102.497 254.083C102.609 253.827 102.762 253.603 102.959 253.408C103.158 253.212 103.387 253.058 103.648 252.947C103.911 252.835 104.191 252.78 104.489 252.78ZM103.488 254.903C103.488 255.083 103.533 255.248 103.623 255.397C103.713 255.544 103.834 255.661 103.985 255.749C104.137 255.834 104.305 255.876 104.489 255.876C104.705 255.876 104.901 255.831 105.079 255.741C105.259 255.649 105.429 255.528 105.59 255.379C105.685 255.292 105.765 255.208 105.832 255.127C105.898 255.044 105.955 254.97 106.002 254.903C105.953 254.837 105.889 254.76 105.81 254.673C105.735 254.585 105.661 254.508 105.59 254.442C105.441 254.3 105.274 254.179 105.09 254.08C104.905 253.98 104.705 253.93 104.489 253.93C104.305 253.93 104.137 253.975 103.985 254.065C103.834 254.153 103.713 254.271 103.623 254.42C103.533 254.567 103.488 254.728 103.488 254.903ZM109.951 254.903C109.951 254.728 109.906 254.567 109.816 254.42C109.726 254.271 109.605 254.153 109.454 254.065C109.305 253.975 109.139 253.93 108.957 253.93C108.81 253.93 108.67 253.954 108.538 254.001C108.408 254.046 108.284 254.108 108.168 254.186C108.052 254.262 107.947 254.347 107.852 254.442C107.767 254.522 107.685 254.609 107.607 254.701C107.532 254.793 107.476 254.861 107.44 254.903C107.495 254.979 107.555 255.056 107.622 255.134C107.688 255.212 107.765 255.294 107.852 255.379C108.009 255.526 108.177 255.646 108.357 255.738C108.537 255.83 108.737 255.876 108.957 255.876C109.139 255.876 109.305 255.834 109.454 255.749C109.605 255.661 109.726 255.544 109.816 255.397C109.906 255.248 109.951 255.083 109.951 254.903ZM115.518 253.835V254.893H112.244V253.835H115.518ZM116.927 258V250.727H119.655C120.213 250.727 120.682 250.831 121.061 251.04C121.442 251.248 121.73 251.535 121.924 251.899C122.12 252.261 122.218 252.673 122.218 253.135C122.218 253.601 122.12 254.016 121.924 254.378C121.727 254.74 121.437 255.025 121.054 255.234C120.67 255.44 120.198 255.543 119.637 255.543H117.829V254.46H119.459C119.786 254.46 120.053 254.403 120.262 254.289C120.47 254.175 120.624 254.019 120.723 253.82C120.825 253.621 120.876 253.393 120.876 253.135C120.876 252.877 120.825 252.65 120.723 252.453C120.624 252.257 120.469 252.104 120.258 251.995C120.05 251.884 119.781 251.828 119.452 251.828H118.245V258H116.927ZM123.486 258H122.08L124.64 250.727H126.267L128.831 258H127.424L125.482 252.219H125.425L123.486 258ZM123.532 255.148H127.368V256.207H123.532V255.148ZM134.319 253.05C134.26 252.858 134.178 252.686 134.074 252.535C133.972 252.381 133.849 252.25 133.705 252.141C133.563 252.032 133.399 251.95 133.215 251.896C133.03 251.839 132.829 251.81 132.611 251.81C132.22 251.81 131.872 251.909 131.567 252.105C131.261 252.302 131.021 252.59 130.846 252.972C130.673 253.35 130.587 253.812 130.587 254.357C130.587 254.906 130.673 255.371 130.846 255.752C131.019 256.133 131.259 256.423 131.567 256.622C131.875 256.819 132.232 256.917 132.639 256.917C133.009 256.917 133.328 256.846 133.598 256.704C133.87 256.562 134.08 256.361 134.227 256.1C134.373 255.837 134.447 255.53 134.447 255.177L134.745 255.223H132.771V254.193H135.722V255.067C135.722 255.689 135.589 256.228 135.324 256.683C135.059 257.137 134.694 257.487 134.23 257.734C133.766 257.978 133.234 258.099 132.632 258.099C131.962 258.099 131.374 257.949 130.867 257.648C130.363 257.345 129.969 256.916 129.685 256.359C129.403 255.801 129.262 255.138 129.262 254.371C129.262 253.784 129.345 253.259 129.511 252.798C129.679 252.336 129.913 251.944 130.214 251.622C130.515 251.298 130.867 251.052 131.272 250.884C131.677 250.713 132.117 250.628 132.593 250.628C132.996 250.628 133.371 250.687 133.719 250.805C134.067 250.921 134.376 251.087 134.646 251.303C134.918 251.518 135.142 251.774 135.317 252.07C135.492 252.366 135.607 252.692 135.661 253.05H134.319ZM136.996 258V250.727H141.726V251.832H138.313V253.806H141.481V254.911H138.313V256.896H141.754V258H136.996ZM151.527 250.727V258H150.355L146.928 253.046H146.868V258H145.55V250.727H146.729L150.153 255.685H150.217V250.727H151.527ZM159.461 254.364C159.461 255.147 159.314 255.818 159.021 256.377C158.729 256.933 158.332 257.36 157.828 257.656C157.326 257.951 156.756 258.099 156.119 258.099C155.483 258.099 154.912 257.951 154.408 257.656C153.906 257.357 153.508 256.93 153.215 256.374C152.923 255.815 152.778 255.145 152.778 254.364C152.778 253.58 152.923 252.91 153.215 252.354C153.508 251.795 153.906 251.368 154.408 251.072C154.912 250.776 155.483 250.628 156.119 250.628C156.756 250.628 157.326 250.776 157.828 251.072C158.332 251.368 158.729 251.795 159.021 252.354C159.314 252.91 159.461 253.58 159.461 254.364ZM158.136 254.364C158.136 253.812 158.05 253.347 157.877 252.968C157.707 252.587 157.47 252.299 157.167 252.105C156.864 251.909 156.515 251.81 156.119 251.81C155.724 251.81 155.375 251.909 155.072 252.105C154.769 252.299 154.531 252.587 154.358 252.968C154.188 253.347 154.102 253.812 154.102 254.364C154.102 254.915 154.188 255.382 154.358 255.763C154.531 256.142 154.769 256.429 155.072 256.626C155.375 256.82 155.724 256.917 156.119 256.917C156.515 256.917 156.864 256.82 157.167 256.626C157.47 256.429 157.707 256.142 157.877 255.763C158.05 255.382 158.136 254.915 158.136 254.364ZM160.065 251.832V250.727H165.867V251.832H163.619V258H162.313V251.832H160.065ZM166.986 258V250.727H171.716V251.832H168.303V253.806H171.471V254.911H168.303V256.896H171.744V258H166.986ZM175.541 258V250.727H178.325C178.85 250.727 179.287 250.81 179.635 250.976C179.985 251.139 180.247 251.363 180.42 251.647C180.595 251.931 180.683 252.253 180.683 252.613C180.683 252.909 180.626 253.162 180.512 253.373C180.399 253.581 180.246 253.75 180.054 253.881C179.862 254.011 179.648 254.104 179.411 254.161V254.232C179.669 254.246 179.917 254.326 180.153 254.47C180.393 254.612 180.588 254.813 180.739 255.074C180.891 255.334 180.967 255.649 180.967 256.018C180.967 256.395 180.876 256.733 180.693 257.034C180.511 257.332 180.236 257.568 179.869 257.741C179.502 257.914 179.041 258 178.484 258H175.541ZM176.858 256.899H178.275C178.753 256.899 179.098 256.808 179.308 256.626C179.521 256.441 179.628 256.204 179.628 255.915C179.628 255.7 179.575 255.506 179.468 255.333C179.362 255.158 179.21 255.021 179.014 254.921C178.817 254.819 178.583 254.768 178.31 254.768H176.858V256.899ZM176.858 253.82H178.161C178.389 253.82 178.593 253.779 178.776 253.696C178.958 253.611 179.101 253.491 179.205 253.337C179.312 253.181 179.365 252.996 179.365 252.783C179.365 252.502 179.266 252.27 179.067 252.087C178.87 251.905 178.578 251.814 178.19 251.814H176.858V253.82ZM188.611 254.364C188.611 255.147 188.465 255.818 188.171 256.377C187.88 256.933 187.482 257.36 186.978 257.656C186.476 257.951 185.907 258.099 185.27 258.099C184.633 258.099 184.062 257.951 183.558 257.656C183.056 257.357 182.659 256.93 182.365 256.374C182.074 255.815 181.928 255.145 181.928 254.364C181.928 253.58 182.074 252.91 182.365 252.354C182.659 251.795 183.056 251.368 183.558 251.072C184.062 250.776 184.633 250.628 185.27 250.628C185.907 250.628 186.476 250.776 186.978 251.072C187.482 251.368 187.88 251.795 188.171 252.354C188.465 252.91 188.611 253.58 188.611 254.364ZM187.287 254.364C187.287 253.812 187.2 253.347 187.028 252.968C186.857 252.587 186.62 252.299 186.317 252.105C186.014 251.909 185.665 251.81 185.27 251.81C184.874 251.81 184.525 251.909 184.222 252.105C183.919 252.299 183.681 252.587 183.508 252.968C183.338 253.347 183.253 253.812 183.253 254.364C183.253 254.915 183.338 255.382 183.508 255.763C183.681 256.142 183.919 256.429 184.222 256.626C184.525 256.82 184.874 256.917 185.27 256.917C185.665 256.917 186.014 256.82 186.317 256.626C186.62 256.429 186.857 256.142 187.028 255.763C187.2 255.382 187.287 254.915 187.287 254.364ZM196.356 254.364C196.356 255.147 196.209 255.818 195.915 256.377C195.624 256.933 195.226 257.36 194.722 257.656C194.22 257.951 193.651 258.099 193.014 258.099C192.377 258.099 191.807 257.951 191.302 257.656C190.8 257.357 190.403 256.93 190.109 256.374C189.818 255.815 189.672 255.145 189.672 254.364C189.672 253.58 189.818 252.91 190.109 252.354C190.403 251.795 190.8 251.368 191.302 251.072C191.807 250.776 192.377 250.628 193.014 250.628C193.651 250.628 194.22 250.776 194.722 251.072C195.226 251.368 195.624 251.795 195.915 252.354C196.209 252.91 196.356 253.58 196.356 254.364ZM195.031 254.364C195.031 253.812 194.945 253.347 194.772 252.968C194.601 252.587 194.365 252.299 194.062 252.105C193.758 251.909 193.409 251.81 193.014 251.81C192.619 251.81 192.269 251.909 191.966 252.105C191.663 252.299 191.425 252.587 191.253 252.968C191.082 253.347 190.997 253.812 190.997 254.364C190.997 254.915 191.082 255.382 191.253 255.763C191.425 256.142 191.663 256.429 191.966 256.626C192.269 256.82 192.619 256.917 193.014 256.917C193.409 256.917 193.758 256.82 194.062 256.626C194.365 256.429 194.601 256.142 194.772 255.763C194.945 255.382 195.031 254.915 195.031 254.364ZM197.601 258V250.727H198.919V254.069H199.007L201.845 250.727H203.453L200.641 253.991L203.478 258H201.894L199.725 254.882L198.919 255.834V258H197.601ZM208.282 252.727C208.249 252.416 208.109 252.175 207.863 252.002C207.619 251.829 207.302 251.743 206.911 251.743C206.637 251.743 206.401 251.784 206.205 251.867C206.008 251.95 205.858 252.062 205.754 252.205C205.649 252.347 205.596 252.509 205.594 252.691C205.594 252.843 205.628 252.974 205.697 253.085C205.768 253.196 205.864 253.291 205.984 253.369C206.105 253.445 206.239 253.509 206.386 253.561C206.533 253.613 206.68 253.657 206.83 253.692L207.511 253.863C207.786 253.927 208.05 254.013 208.303 254.122C208.559 254.231 208.787 254.368 208.989 254.534C209.192 254.7 209.353 254.9 209.472 255.134C209.59 255.369 209.649 255.643 209.649 255.958C209.649 256.384 209.54 256.759 209.323 257.084C209.105 257.406 208.79 257.658 208.378 257.84C207.968 258.02 207.472 258.11 206.89 258.11C206.324 258.11 205.833 258.022 205.416 257.847C205.002 257.672 204.678 257.416 204.443 257.08C204.211 256.744 204.086 256.335 204.067 255.852H205.363C205.382 256.105 205.46 256.316 205.597 256.484C205.735 256.652 205.913 256.777 206.134 256.86C206.356 256.943 206.605 256.984 206.879 256.984C207.166 256.984 207.417 256.942 207.632 256.857C207.85 256.769 208.02 256.648 208.144 256.494C208.267 256.338 208.329 256.156 208.332 255.947C208.329 255.758 208.274 255.602 208.165 255.479C208.056 255.353 207.903 255.249 207.707 255.166C207.513 255.081 207.285 255.005 207.025 254.939L206.198 254.726C205.599 254.572 205.125 254.339 204.777 254.026C204.431 253.711 204.259 253.294 204.259 252.773C204.259 252.344 204.375 251.969 204.607 251.647C204.841 251.325 205.159 251.075 205.562 250.898C205.964 250.718 206.42 250.628 206.929 250.628C207.445 250.628 207.897 250.718 208.286 250.898C208.676 251.075 208.983 251.323 209.205 251.64C209.428 251.955 209.543 252.317 209.55 252.727H208.282Z" fill="black" fill-opacity="0.71"/>
<path d="M18.6602 267.982L295.003 267.982" stroke="black" stroke-width="0.888563" stroke-linecap="round"/>
<path d="M19.0449 285.622V284.654L21.473 280.828H22.3079V282.169H21.8138L20.2831 284.591V284.637H23.7335V285.622H19.0449ZM21.8365 286.645V285.327L21.8592 284.898V280.828H23.0122V286.645H21.8365ZM27.2819 283.257V284.216H24.6295V283.257H27.2819ZM30.4122 286.724C29.9881 286.724 29.6104 286.651 29.2791 286.505C28.9496 286.358 28.6893 286.155 28.4981 285.898C28.3088 285.638 28.2113 285.339 28.2056 285H29.4438C29.4514 285.142 29.4977 285.267 29.5829 285.375C29.67 285.481 29.7855 285.563 29.9294 285.622C30.0733 285.681 30.2352 285.71 30.415 285.71C30.6024 285.71 30.7681 285.677 30.912 285.611C31.0559 285.545 31.1685 285.453 31.2499 285.335C31.3313 285.218 31.372 285.083 31.372 284.929C31.372 284.774 31.3285 284.637 31.2414 284.517C31.1562 284.396 31.0332 284.302 30.8722 284.233C30.7132 284.165 30.5239 284.131 30.3043 284.131H29.7618V283.228H30.3043C30.4898 283.228 30.6536 283.196 30.7956 283.132C30.9394 283.067 31.0511 282.978 31.1307 282.865C31.2102 282.749 31.2499 282.615 31.2499 282.461C31.2499 282.316 31.2149 282.188 31.1449 282.078C31.0767 281.966 30.9801 281.879 30.8552 281.817C30.7321 281.754 30.5882 281.723 30.4235 281.723C30.2569 281.723 30.1045 281.753 29.9663 281.814C29.8281 281.873 29.7174 281.957 29.634 282.067C29.5507 282.176 29.5063 282.305 29.5006 282.453H28.322C28.3277 282.118 28.4233 281.822 28.6089 281.567C28.7944 281.311 29.0443 281.112 29.3586 280.968C29.6748 280.822 30.0316 280.749 30.4292 280.749C30.8306 280.749 31.1818 280.822 31.4828 280.968C31.7838 281.113 32.0176 281.31 32.1843 281.558C32.3527 281.804 32.4361 282.081 32.4342 282.388C32.4361 282.713 32.3348 282.985 32.1303 283.203C31.9277 283.42 31.6636 283.559 31.338 283.617V283.663C31.7658 283.718 32.0915 283.866 32.3149 284.109C32.5402 284.349 32.6519 284.65 32.65 285.012C32.6519 285.343 32.5563 285.637 32.3632 285.895C32.1719 286.152 31.9078 286.355 31.5708 286.503C31.2338 286.65 30.8476 286.724 30.4122 286.724ZM34.5591 280.828V281.442C34.5591 281.616 34.525 281.794 34.4569 281.976C34.3906 282.156 34.3016 282.326 34.1899 282.487C34.0782 282.646 33.9561 282.781 33.8236 282.893L33.2897 282.578C33.3843 282.428 33.4676 282.263 33.5396 282.081C33.6134 281.899 33.6503 281.688 33.6503 281.448V280.828H34.5591ZM35.9875 280.828V281.442C35.9875 281.616 35.9535 281.794 35.8853 281.976C35.819 282.156 35.7301 282.326 35.6184 282.487C35.5067 282.646 35.3836 282.781 35.2492 282.893L34.7153 282.578C34.8118 282.428 34.8961 282.263 34.968 282.081C35.0419 281.899 35.0788 281.688 35.0788 281.448V280.828H35.9875ZM39.7731 282.282L40.5739 283.808L41.3947 282.282H42.6357L41.3719 284.464L42.6698 286.645H41.4344L40.5739 285.137L39.7276 286.645H38.4781L39.7731 284.464L38.5235 282.282H39.7731ZM45.4237 286.645L47.8348 281.874V281.834H45.0261V280.828H49.107V281.848L46.6931 286.645H45.4237ZM52.6789 283.257V284.216H50.0264V283.257H52.6789ZM56.2287 280.828V286.645H54.999V281.996H54.965L53.6331 282.831V281.74L55.0729 280.828H56.2287ZM60.1555 280.556L58.2812 287.519H57.239L59.1133 280.556H60.1555ZM60.7271 286.645V285.758L62.7973 283.842C62.9734 283.671 63.1211 283.518 63.2403 283.382C63.3615 283.245 63.4533 283.112 63.5158 282.981C63.5783 282.849 63.6095 282.706 63.6095 282.552C63.6095 282.382 63.5707 282.235 63.4931 282.112C63.4155 281.987 63.3094 281.892 63.175 281.825C63.0406 281.757 62.8882 281.723 62.7178 281.723C62.5398 281.723 62.3846 281.759 62.2521 281.831C62.1195 281.903 62.0173 282.006 61.9454 282.141C61.8734 282.275 61.8374 282.435 61.8374 282.62H60.6703C60.6703 282.24 60.7564 281.91 60.9287 281.629C61.101 281.349 61.3424 281.132 61.6528 280.979C61.9633 280.826 62.3212 280.749 62.7263 280.749C63.1428 280.749 63.5054 280.823 63.814 280.97C64.1245 281.116 64.3659 281.319 64.5382 281.578C64.7104 281.838 64.7966 282.135 64.7966 282.47C64.7966 282.69 64.753 282.906 64.6659 283.12C64.5808 283.334 64.4283 283.572 64.2087 283.833C63.9891 284.092 63.6796 284.404 63.2801 284.767L62.431 285.599V285.639H64.8733V286.645H60.7271ZM66.7895 280.828V281.442C66.7895 281.616 66.7554 281.794 66.6872 281.976C66.621 282.156 66.532 282.326 66.4203 282.487C66.3086 282.646 66.1865 282.781 66.0539 282.893L65.52 282.578C65.6147 282.428 65.698 282.263 65.7699 282.081C65.8438 281.899 65.8807 281.688 65.8807 281.448V280.828H66.7895ZM68.2179 280.828V281.442C68.2179 281.616 68.1838 281.794 68.1157 281.976C68.0494 282.156 67.9604 282.326 67.8487 282.487C67.737 282.646 67.614 282.781 67.4795 282.893L66.9456 282.578C67.0422 282.428 67.1265 282.263 67.1984 282.081C67.2722 281.899 67.3092 281.688 67.3092 281.448V280.828H68.2179Z" fill="#3A2E1F"/>
<path d="M234.907 286.645H232.845V280.828H234.924C235.509 280.828 236.012 280.945 236.435 281.178C236.857 281.409 237.181 281.741 237.409 282.175C237.638 282.608 237.752 283.127 237.752 283.731C237.752 284.337 237.638 284.857 237.409 285.293C237.181 285.728 236.855 286.062 236.429 286.295C236.005 286.528 235.497 286.645 234.907 286.645ZM234.075 285.591H234.856C235.219 285.591 235.525 285.527 235.773 285.398C236.023 285.267 236.21 285.066 236.335 284.793C236.462 284.518 236.525 284.164 236.525 283.731C236.525 283.301 236.462 282.95 236.335 282.677C236.21 282.405 236.024 282.204 235.776 282.075C235.528 281.946 235.222 281.882 234.858 281.882H234.075V285.591ZM240.611 286.73C240.17 286.73 239.789 286.636 239.467 286.449C239.147 286.259 238.9 285.996 238.726 285.659C238.551 285.32 238.464 284.927 238.464 284.481C238.464 284.03 238.551 283.636 238.726 283.299C238.9 282.96 239.147 282.697 239.467 282.51C239.789 282.32 240.17 282.226 240.611 282.226C241.052 282.226 241.433 282.32 241.753 282.51C242.075 282.697 242.323 282.96 242.497 283.299C242.671 283.636 242.758 284.03 242.758 284.481C242.758 284.927 242.671 285.32 242.497 285.659C242.323 285.996 242.075 286.259 241.753 286.449C241.433 286.636 241.052 286.73 240.611 286.73ZM240.617 285.793C240.818 285.793 240.985 285.736 241.12 285.622C241.254 285.507 241.355 285.35 241.423 285.151C241.494 284.952 241.529 284.726 241.529 284.472C241.529 284.218 241.494 283.992 241.423 283.793C241.355 283.595 241.254 283.437 241.12 283.322C240.985 283.206 240.818 283.149 240.617 283.149C240.414 283.149 240.244 283.206 240.106 283.322C239.969 283.437 239.866 283.595 239.796 283.793C239.728 283.992 239.694 284.218 239.694 284.472C239.694 284.726 239.728 284.952 239.796 285.151C239.866 285.35 239.969 285.507 240.106 285.622C240.244 285.736 240.414 285.793 240.617 285.793ZM246.342 284.787V282.282H247.552V286.645H246.39V285.852H246.345C246.246 286.108 246.083 286.313 245.854 286.468C245.626 286.624 245.349 286.701 245.022 286.701C244.73 286.701 244.473 286.635 244.252 286.503C244.03 286.37 243.857 286.182 243.732 285.937C243.609 285.693 243.547 285.401 243.545 285.06V282.282H244.755V284.844C244.757 285.102 244.826 285.305 244.962 285.455C245.098 285.604 245.281 285.679 245.51 285.679C245.656 285.679 245.792 285.646 245.919 285.58C246.046 285.511 246.148 285.411 246.226 285.279C246.305 285.146 246.344 284.982 246.342 284.787ZM248.542 286.645V280.828H249.752V283.015H249.789C249.842 282.898 249.919 282.779 250.019 282.657C250.121 282.534 250.254 282.432 250.417 282.351C250.581 282.267 250.786 282.226 251.03 282.226C251.348 282.226 251.642 282.309 251.91 282.476C252.179 282.64 252.394 282.889 252.555 283.222C252.716 283.554 252.796 283.969 252.796 284.469C252.796 284.956 252.718 285.367 252.561 285.702C252.405 286.035 252.193 286.288 251.925 286.46C251.658 286.63 251.358 286.716 251.027 286.716C250.792 286.716 250.593 286.677 250.428 286.599C250.265 286.521 250.132 286.424 250.028 286.307C249.923 286.187 249.844 286.067 249.789 285.946H249.735V286.645H248.542ZM249.727 284.464C249.727 284.723 249.762 284.949 249.834 285.142C249.906 285.335 250.011 285.486 250.147 285.594C250.283 285.7 250.449 285.753 250.644 285.753C250.841 285.753 251.007 285.699 251.144 285.591C251.28 285.481 251.383 285.33 251.453 285.137C251.525 284.942 251.561 284.717 251.561 284.464C251.561 284.212 251.526 283.99 251.456 283.799C251.386 283.608 251.283 283.458 251.146 283.35C251.01 283.242 250.843 283.188 250.644 283.188C250.447 283.188 250.28 283.24 250.144 283.345C250.01 283.449 249.906 283.596 249.834 283.788C249.762 283.979 249.727 284.204 249.727 284.464ZM254.813 280.828V286.645H253.604V280.828H254.813ZM257.77 286.73C257.322 286.73 256.936 286.639 256.612 286.457C256.29 286.273 256.042 286.014 255.868 285.679C255.694 285.342 255.606 284.943 255.606 284.483C255.606 284.035 255.694 283.641 255.868 283.302C256.042 282.963 256.287 282.699 256.603 282.51C256.921 282.32 257.294 282.226 257.722 282.226C258.01 282.226 258.278 282.272 258.526 282.365C258.776 282.456 258.993 282.593 259.179 282.777C259.366 282.96 259.512 283.191 259.616 283.47C259.72 283.746 259.773 284.07 259.773 284.441V284.773H256.089V284.023H258.634C258.634 283.849 258.596 283.695 258.52 283.56C258.444 283.426 258.339 283.321 258.205 283.245C258.072 283.168 257.918 283.129 257.742 283.129C257.558 283.129 257.396 283.171 257.254 283.257C257.113 283.34 257.004 283.453 256.924 283.595C256.845 283.735 256.804 283.891 256.802 284.063V284.776C256.802 284.992 256.842 285.178 256.921 285.335C257.003 285.492 257.117 285.614 257.265 285.699C257.413 285.784 257.588 285.827 257.79 285.827C257.925 285.827 258.048 285.808 258.16 285.77C258.271 285.732 258.367 285.675 258.446 285.599C258.526 285.524 258.586 285.431 258.628 285.321L259.747 285.395C259.69 285.664 259.574 285.899 259.398 286.099C259.224 286.298 258.998 286.453 258.722 286.565C258.447 286.675 258.13 286.73 257.77 286.73ZM262.413 286.645V282.282H263.566V283.052H263.617C263.708 282.797 263.859 282.595 264.071 282.447C264.283 282.3 264.537 282.226 264.832 282.226C265.132 282.226 265.386 282.3 265.596 282.45C265.807 282.598 265.947 282.798 266.017 283.052H266.062C266.151 282.802 266.312 282.602 266.545 282.453C266.78 282.301 267.057 282.226 267.377 282.226C267.784 282.226 268.114 282.355 268.368 282.615C268.624 282.872 268.752 283.238 268.752 283.711V286.645H267.545V283.949C267.545 283.707 267.48 283.525 267.351 283.404C267.223 283.283 267.062 283.222 266.869 283.222C266.649 283.222 266.478 283.293 266.355 283.433C266.232 283.571 266.17 283.754 266.17 283.981V286.645H264.997V283.924C264.997 283.71 264.936 283.54 264.813 283.413C264.691 283.286 264.531 283.222 264.333 283.222C264.198 283.222 264.077 283.257 263.969 283.325C263.863 283.391 263.779 283.485 263.716 283.606C263.654 283.725 263.623 283.865 263.623 284.026V286.645H262.413ZM270.951 286.727C270.673 286.727 270.425 286.679 270.207 286.582C269.989 286.484 269.817 286.339 269.69 286.148C269.565 285.954 269.503 285.714 269.503 285.426C269.503 285.184 269.547 284.98 269.636 284.816C269.725 284.651 269.846 284.518 270 284.418C270.153 284.318 270.327 284.242 270.522 284.191C270.719 284.14 270.925 284.104 271.141 284.083C271.395 284.056 271.599 284.032 271.755 284.009C271.91 283.985 272.023 283.949 272.093 283.901C272.163 283.854 272.198 283.784 272.198 283.691V283.674C272.198 283.494 272.141 283.355 272.027 283.257C271.916 283.158 271.757 283.109 271.55 283.109C271.332 283.109 271.159 283.157 271.03 283.254C270.902 283.348 270.817 283.468 270.775 283.612L269.656 283.521C269.713 283.256 269.824 283.027 269.991 282.833C270.158 282.638 270.373 282.489 270.636 282.385C270.901 282.279 271.208 282.226 271.556 282.226C271.798 282.226 272.03 282.254 272.252 282.311C272.475 282.368 272.673 282.456 272.845 282.575C273.019 282.694 273.157 282.848 273.257 283.035C273.357 283.221 273.407 283.443 273.407 283.702V286.645H272.26V286.04H272.226C272.156 286.176 272.062 286.296 271.945 286.4C271.828 286.503 271.687 286.583 271.522 286.642C271.357 286.698 271.167 286.727 270.951 286.727ZM271.297 285.892C271.475 285.892 271.633 285.857 271.769 285.787C271.905 285.715 272.012 285.618 272.09 285.497C272.167 285.376 272.206 285.239 272.206 285.085V284.623C272.168 284.647 272.116 284.67 272.05 284.691C271.986 284.71 271.913 284.728 271.831 284.745C271.75 284.76 271.669 284.774 271.587 284.787C271.506 284.799 271.432 284.809 271.366 284.818C271.224 284.839 271.1 284.872 270.994 284.918C270.888 284.963 270.805 285.025 270.747 285.102C270.688 285.178 270.658 285.273 270.658 285.386C270.658 285.551 270.718 285.677 270.837 285.764C270.959 285.849 271.112 285.892 271.297 285.892ZM276.666 282.282V283.191H274.039V282.282H276.666ZM274.636 281.237H275.845V285.304C275.845 285.416 275.863 285.503 275.897 285.565C275.931 285.626 275.978 285.669 276.039 285.693C276.101 285.718 276.173 285.73 276.254 285.73C276.311 285.73 276.368 285.725 276.425 285.716C276.482 285.705 276.525 285.696 276.555 285.69L276.746 286.591C276.685 286.61 276.6 286.631 276.49 286.656C276.38 286.682 276.247 286.698 276.09 286.704C275.798 286.716 275.543 286.677 275.323 286.588C275.105 286.499 274.936 286.361 274.815 286.173C274.693 285.986 274.634 285.749 274.636 285.463V281.237ZM279.395 286.73C278.947 286.73 278.56 286.639 278.237 286.457C277.915 286.273 277.667 286.014 277.493 285.679C277.318 285.342 277.231 284.943 277.231 284.483C277.231 284.035 277.318 283.641 277.493 283.302C277.667 282.963 277.912 282.699 278.228 282.51C278.546 282.32 278.919 282.226 279.347 282.226C279.635 282.226 279.903 282.272 280.151 282.365C280.401 282.456 280.618 282.593 280.804 282.777C280.991 282.96 281.137 283.191 281.241 283.47C281.345 283.746 281.397 284.07 281.397 284.441V284.773H277.714V284.023H280.259C280.259 283.849 280.221 283.695 280.145 283.56C280.069 283.426 279.964 283.321 279.83 283.245C279.697 283.168 279.543 283.129 279.367 283.129C279.183 283.129 279.02 283.171 278.878 283.257C278.738 283.34 278.629 283.453 278.549 283.595C278.47 283.735 278.429 283.891 278.427 284.063V284.776C278.427 284.992 278.467 285.178 278.546 285.335C278.628 285.492 278.742 285.614 278.89 285.699C279.037 285.784 279.213 285.827 279.415 285.827C279.55 285.827 279.673 285.808 279.784 285.77C279.896 285.732 279.992 285.675 280.071 285.599C280.151 285.524 280.211 285.431 280.253 285.321L281.372 285.395C281.315 285.664 281.199 285.899 281.023 286.099C280.848 286.298 280.623 286.453 280.347 286.565C280.072 286.675 279.755 286.73 279.395 286.73ZM282.187 286.645V282.282H283.36V283.044H283.405C283.485 282.773 283.618 282.568 283.806 282.43C283.993 282.29 284.209 282.22 284.453 282.22C284.514 282.22 284.579 282.224 284.649 282.231C284.719 282.239 284.781 282.249 284.834 282.263V283.336C284.777 283.319 284.698 283.304 284.598 283.291C284.498 283.277 284.406 283.271 284.322 283.271C284.145 283.271 283.986 283.31 283.845 283.387C283.707 283.463 283.597 283.569 283.516 283.705C283.436 283.842 283.397 283.999 283.397 284.177V286.645H282.187ZM285.459 286.645V282.282H286.669V286.645H285.459ZM286.067 281.72C285.887 281.72 285.733 281.661 285.604 281.541C285.477 281.42 285.414 281.275 285.414 281.107C285.414 280.94 285.477 280.797 285.604 280.678C285.733 280.557 285.887 280.496 286.067 280.496C286.247 280.496 286.4 280.557 286.527 280.678C286.656 280.797 286.72 280.94 286.72 281.107C286.72 281.275 286.656 281.42 286.527 281.541C286.4 281.661 286.247 281.72 286.067 281.72ZM288.882 286.727C288.604 286.727 288.356 286.679 288.138 286.582C287.92 286.484 287.748 286.339 287.621 286.148C287.496 285.954 287.434 285.714 287.434 285.426C287.434 285.184 287.478 284.98 287.567 284.816C287.656 284.651 287.777 284.518 287.931 284.418C288.084 284.318 288.258 284.242 288.453 284.191C288.65 284.14 288.856 284.104 289.072 284.083C289.326 284.056 289.53 284.032 289.686 284.009C289.841 283.985 289.953 283.949 290.024 283.901C290.094 283.854 290.129 283.784 290.129 283.691V283.674C290.129 283.494 290.072 283.355 289.958 283.257C289.847 283.158 289.687 283.109 289.481 283.109C289.263 283.109 289.09 283.157 288.961 283.254C288.833 283.348 288.747 283.468 288.706 283.612L287.587 283.521C287.644 283.256 287.755 283.027 287.922 282.833C288.089 282.638 288.304 282.489 288.567 282.385C288.832 282.279 289.138 282.226 289.487 282.226C289.729 282.226 289.961 282.254 290.183 282.311C290.406 282.368 290.604 282.456 290.776 282.575C290.95 282.694 291.088 282.848 291.188 283.035C291.288 283.221 291.338 283.443 291.338 283.702V286.645H290.191V286.04H290.157C290.087 286.176 289.993 286.296 289.876 286.4C289.758 286.503 289.617 286.583 289.453 286.642C289.288 286.698 289.098 286.727 288.882 286.727ZM289.228 285.892C289.406 285.892 289.563 285.857 289.7 285.787C289.836 285.715 289.943 285.618 290.021 285.497C290.098 285.376 290.137 285.239 290.137 285.085V284.623C290.099 284.647 290.047 284.67 289.981 284.691C289.917 284.71 289.844 284.728 289.762 284.745C289.681 284.76 289.599 284.774 289.518 284.787C289.437 284.799 289.363 284.809 289.297 284.818C289.155 284.839 289.031 284.872 288.925 284.918C288.818 284.963 288.736 285.025 288.677 285.102C288.619 285.178 288.589 285.273 288.589 285.386C288.589 285.551 288.649 285.677 288.768 285.764C288.889 285.849 289.043 285.892 289.228 285.892ZM293.487 280.828V286.645H292.277V280.828H293.487Z" fill="#3A2E1F"/>
<circle cx="256" cy="212.5" r="0.5" fill="#0D0D0D"/>
<circle cx="261" cy="212.5" r="0.5" fill="#0D0D0D"/>
<circle cx="266" cy="212.5" r="0.5" fill="#0D0D0D"/>
<circle cx="271" cy="212.5" r="0.5" fill="#0D0D0D"/>
<circle cx="276" cy="212.5" r="0.5" fill="#0D0D0D"/>
<circle cx="281" cy="212.5" r="0.5" fill="#0D0D0D"/>
<circle cx="256" cy="217.5" r="0.5" fill="#0D0D0D"/>
<circle cx="261" cy="217.5" r="0.5" fill="#0D0D0D"/>
<circle cx="266" cy="217.5" r="0.5" fill="#0D0D0D"/>
<circle cx="271" cy="217.5" r="0.5" fill="#0D0D0D"/>
<circle cx="276" cy="217.5" r="0.5" fill="#0D0D0D"/>
<circle cx="281" cy="217.5" r="0.5" fill="#0D0D0D"/>
<circle cx="256" cy="222.5" r="0.5" fill="#0D0D0D"/>
<circle cx="261" cy="222.5" r="0.5" fill="#0D0D0D"/>
<circle cx="266" cy="222.5" r="0.5" fill="#0D0D0D"/>
<circle cx="271" cy="222.5" r="0.5" fill="#0D0D0D"/>
<circle cx="276" cy="222.5" r="0.5" fill="#0D0D0D"/>
<circle cx="281" cy="222.5" r="0.5" fill="#0D0D0D"/>
<circle cx="256" cy="227.5" r="0.5" fill="#0D0D0D"/>
<circle cx="261" cy="227.5" r="0.5" fill="#0D0D0D"/>
<circle cx="266" cy="227.5" r="0.5" fill="#0D0D0D"/>
<circle cx="271" cy="227.5" r="0.5" fill="#0D0D0D"/>
<circle cx="276" cy="227.5" r="0.5" fill="#0D0D0D"/>
<circle cx="281" cy="227.5" r="0.5" fill="#0D0D0D"/>
<circle cx="256" cy="232.5" r="0.5" fill="#0D0D0D"/>
<circle cx="261" cy="232.5" r="0.5" fill="#0D0D0D"/>
<circle cx="266" cy="232.5" r="0.5" fill="#0D0D0D"/>
<circle cx="271" cy="232.5" r="0.5" fill="#0D0D0D"/>
<circle cx="276" cy="232.5" r="0.5" fill="#0D0D0D"/>
<circle cx="281" cy="232.5" r="0.5" fill="#0D0D0D"/>
<circle cx="256" cy="237.5" r="0.5" fill="#0D0D0D"/>
<circle cx="261" cy="237.5" r="0.5" fill="#0D0D0D"/>
<circle cx="266" cy="237.5" r="0.5" fill="#0D0D0D"/>
<circle cx="271" cy="237.5" r="0.5" fill="#0D0D0D"/>
<circle cx="276" cy="237.5" r="0.5" fill="#0D0D0D"/>
<circle cx="281" cy="237.5" r="0.5" fill="#0D0D0D"/>
<circle cx="256" cy="242.5" r="0.5" fill="#0D0D0D"/>
<circle cx="261" cy="242.5" r="0.5" fill="#0D0D0D"/>
<circle cx="266" cy="242.5" r="0.5" fill="#0D0D0D"/>
<circle cx="271" cy="242.5" r="0.5" fill="#0D0D0D"/>
<circle cx="276" cy="242.5" r="0.5" fill="#0D0D0D"/>
<circle cx="281" cy="242.5" r="0.5" fill="#0D0D0D"/>
<circle cx="256" cy="247.5" r="0.5" fill="#0D0D0D"/>
<circle cx="261" cy="247.5" r="0.5" fill="#0D0D0D"/>
<circle cx="266" cy="247.5" r="0.5" fill="#0D0D0D"/>
<circle cx="271" cy="247.5" r="0.5" fill="#0D0D0D"/>
<circle cx="276" cy="247.5" r="0.5" fill="#0D0D0D"/>
<circle cx="281" cy="247.5" r="0.5" fill="#0D0D0D"/>
<path d="M250.309 206.309H281C284.143 206.309 286.691 208.857 286.691 212V248C286.691 251.143 284.143 253.691 281 253.691H250.309V206.309Z" stroke="black" stroke-width="0.617284"/>
<rect x="-12.8838" y="195.564" width="338.543" height="106.628" stroke="#D8B790" stroke-width="0.888563"/>
</g>
</g>
<defs>
<filter id="filter0_ii_1342_8518" x="7.04675" y="32.5125" width="8.45618" height="466.479" filterUnits="userSpaceOnUse" color-interpolation-filters="sRGB">
<feFlood flood-opacity="0" result="BackgroundImageFix"/>
<feBlend mode="normal" in="SourceGraphic" in2="BackgroundImageFix" result="shape"/>
<feColorMatrix in="SourceAlpha" type="matrix" values="0 0 0 0 0 0 0 0 0 0 0 0 0 0 0 0 0 0 127 0" result="hardAlpha"/>
<feOffset dx="-1.4093"/>
<feGaussianBlur stdDeviation="2.11395"/>
<feComposite in2="hardAlpha" operator="arithmetic" k2="-1" k3="1"/>
<feColorMatrix type="matrix" values="0 0 0 0 0 0 0 0 0 0 0 0 0 0 0 0 0 0 0.18 0"/>
<feBlend mode="normal" in2="shape" result="effect1_innerShadow_1342_8518"/>
<feColorMatrix in="SourceAlpha" type="matrix" values="0 0 0 0 0 0 0 0 0 0 0 0 0 0 0 0 0 0 127 0" result="hardAlpha"/>
<feOffset dx="-1.4093"/>
<feGaussianBlur stdDeviation="2.11395"/>
<feComposite in2="hardAlpha" operator="arithmetic" k2="-1" k3="1"/>
<feColorMatrix type="matrix" values="0 0 0 0 0 0 0 0 0 0 0 0 0 0 0 0 0 0 0.18 0"/>
<feBlend mode="normal" in2="effect1_innerShadow_1342_8518" result="effect2_innerShadow_1342_8518"/>
</filter>
<filter id="filter1_d_1342_8518" x="-18.6595" y="185.345" width="350.093" height="118.179" filterUnits="userSpaceOnUse" color-interpolation-filters="sRGB">
<feFlood flood-opacity="0" result="BackgroundImageFix"/>
<feColorMatrix in="SourceAlpha" type="matrix" values="0 0 0 0 0 0 0 0 0 0 0 0 0 0 0 0 0 0 127 0" result="hardAlpha"/>
<feOffset dy="-4.44282"/>
<feGaussianBlur stdDeviation="2.66569"/>
<feComposite in2="hardAlpha" operator="out"/>
<feColorMatrix type="matrix" values="0 0 0 0 0.00416667 0 0 0 0 0.00416667 0 0 0 0 0.00416667 0 0 0 0.25 0"/>
<feBlend mode="normal" in2="BackgroundImageFix" result="effect1_dropShadow_1342_8518"/>
<feBlend mode="normal" in="SourceGraphic" in2="effect1_dropShadow_1342_8518" result="shape"/>
</filter>
<clipPath id="clip0_1342_8518">
<path d="M0 37.8438C0 34.8994 2.38694 32.5125 5.33138 32.5125H271.012C288.678 32.5125 303 46.8341 303 64.5007V465.594C303 483.261 288.678 497.582 271.012 497.582H5.33139C2.38695 497.582 0 495.195 0 492.251V37.8438Z" fill="white"/>
</clipPath>
</defs>
</svg>
