<svg width="114" height="114" viewBox="0 0 114 114" fill="none" xmlns="http://www.w3.org/2000/svg">
<mask id="mask0_929_6686" style="mask-type:alpha" maskUnits="userSpaceOnUse" x="0" y="0" width="114" height="114">
<rect width="114" height="114" rx="27" fill="#D9D9D9"/>
</mask>
<g mask="url(#mask0_929_6686)">
<rect width="114" height="114" rx="27" fill="#202020"/>
</g>
<path d="M69.2774 68.4777C71.4886 68.2866 73.1991 66.3371 73.0898 64.0079C72.9704 61.6787 71.0667 59.8083 68.7462 59.8083H68.5911C67.4396 59.8494 66.3514 60.3474 65.566 61.1928C64.7805 62.0381 64.362 63.1616 64.4025 64.3163C64.4788 65.5369 64.9769 66.5308 65.6581 67.2545C62.9945 72.448 58.9965 76.2654 52.9373 79.4737C48.863 81.6092 44.5601 82.4145 40.3715 81.8437C36.8691 81.3468 34.1292 79.7795 32.4518 77.2592C29.9406 73.4393 29.7119 69.3186 31.8036 65.1954C33.3286 62.2139 35.6135 60.0402 37.1385 58.9699C36.6781 57.69 36.3212 56.375 36.071 55.0378C24.7938 63.1364 25.9426 74.2063 29.3688 79.4381C31.9206 83.2554 37.1385 85.6967 42.8495 85.6967C44.3745 85.6967 45.9757 85.5846 47.5338 85.2024C57.4385 83.2937 64.9388 77.3382 69.2418 68.5567L69.2774 68.4777ZM82.87 58.9316C76.9734 51.9798 68.2861 48.1624 58.384 48.1624H57.0877C56.4447 46.7506 54.9604 45.8714 53.2804 45.8714H53.166C50.7692 45.8714 48.9012 47.9356 48.9799 50.3387C49.0562 52.6271 50.998 54.5383 53.321 54.5383H53.5091C54.3331 54.5064 55.1305 54.2374 55.8061 53.7633C56.4817 53.2893 57.0069 52.6303 57.319 51.8651H58.7296C64.5982 51.8651 70.1542 53.5827 75.2197 56.9414C79.1008 59.5025 81.8838 62.8612 83.4469 66.8722C84.8143 70.1545 84.7406 73.3628 83.3326 76.0386C81.1595 80.2357 77.5021 82.4527 72.6679 82.4527C69.6205 82.4527 66.6519 81.4971 65.1269 80.8116C64.2119 81.571 62.6869 82.8324 61.5839 83.5969C64.9337 85.1208 68.3243 86 71.5979 86C79.0245 86 84.5449 81.8029 86.6418 77.7536C88.9241 73.1717 88.7361 65.4605 82.9056 58.8552L82.87 58.9316ZM43.4951 69.8487C43.5714 72.1396 45.5106 74.0483 47.8362 74.0483H47.9887C48.561 74.0354 49.125 73.9077 49.6473 73.6729C50.1697 73.438 50.6399 73.1007 51.0302 72.6809C51.4206 72.261 51.7231 71.7671 51.9201 71.2281C52.1171 70.6892 52.2046 70.1162 52.1773 69.5429C52.1773 67.2494 50.1974 65.3458 47.8743 65.3458H47.7218C47.5693 65.3458 47.3406 65.3458 47.1474 65.4197C43.9882 60.0733 42.6538 54.3421 43.152 48.1624C43.457 43.504 44.982 39.4547 47.7193 36.096C50.0068 33.2317 54.3097 31.8149 57.2428 31.7435C65.4675 31.588 68.8961 41.8629 69.1605 45.9479L72.9678 47.0946C72.091 34.567 64.3263 28 56.8997 28C49.9254 28 43.4951 33.0788 40.9027 40.525C37.3622 50.4508 39.6852 59.9994 44.0289 67.6367C43.6476 68.1337 43.4189 69.0103 43.4951 69.8487Z" fill="#50C878"/>
</svg>
