<svg width="100%" height="100%" viewBox="0 0 57 70" fill="none" xmlns="http://www.w3.org/2000/svg">
<g id="371510 1" clip-path="url(#clip0_920_3296)">
<g id="Group">
<path id="Vector" d="M2.18387 64.3658L0.00253529 6.70886C-0.0695055 4.80467 1.40234 3.1909 3.31952 3.07204L52.7568 0.00695843C54.7083 -0.11403 56.3891 1.35718 56.5111 3.293C56.5157 3.36593 56.518 3.43899 56.518 3.51207V66.3395C56.518 68.2791 54.9329 69.8514 52.9777 69.8514C52.9247 69.8514 52.8717 69.8503 52.8188 69.8479L5.56284 67.7425C3.7224 67.6605 2.25296 66.192 2.18387 64.3658Z" fill="#FF4785"/>
<g id="Mask group">
<mask id="mask0_920_3296" style="mask-type:luminance" maskUnits="userSpaceOnUse" x="0" y="0" width="57" height="70">
<g id="Group_2">
<path id="Vector_2" d="M2.18387 64.3658L0.00253529 6.70886C-0.0695055 4.80467 1.40234 3.1909 3.31952 3.07204L52.7568 0.00695843C54.7083 -0.11403 56.3891 1.35718 56.5111 3.293C56.5157 3.36593 56.518 3.43899 56.518 3.51207V66.3395C56.518 68.2791 54.9329 69.8514 52.9777 69.8514C52.9247 69.8514 52.8717 69.8503 52.8188 69.8479L5.56284 67.7425C3.7224 67.6605 2.25296 66.192 2.18387 64.3658Z" fill="white"/>
</g>
</mask>
<g mask="url(#mask0_920_3296)">
<path id="Vector_3" d="M41.734 8.58586L42.0717 0.529166L48.8609 0L49.1534 8.30859C49.1636 8.59774 48.9355 8.84034 48.644 8.85044C48.5192 8.85476 48.3969 8.81506 48.2988 8.7384L45.6807 6.69244L42.5808 9.02501C42.3485 9.19987 42.0172 9.15475 41.8409 8.92423C41.7667 8.8272 41.7289 8.70755 41.734 8.58586ZM33.0512 26.328C33.0512 27.6943 42.3291 27.0395 43.5746 26.0797C43.5746 16.7752 38.5417 11.8858 29.3256 11.8858C20.1094 11.8858 14.9458 16.8512 14.9458 24.2994C14.9458 37.2717 32.5937 37.52 32.5937 44.5957C32.5937 46.5819 31.6133 47.7612 29.4563 47.7612C26.6457 47.7612 25.5345 46.3373 25.6653 41.496C25.6653 40.4458 14.9458 40.1183 14.619 41.496C13.7868 53.2283 21.1552 56.6123 29.587 56.6123C37.7573 56.6123 44.1629 52.2922 44.1629 44.4716C44.1629 30.5683 26.2535 30.9407 26.2535 24.0511C26.2535 21.2581 28.3451 20.8857 29.587 20.8857C30.8943 20.8857 33.2473 21.1142 33.0512 26.328Z" fill="white"/>
</g>
</g>
</g>
</g>
<defs>
<clipPath id="clip0_920_3296">
<rect width="56.6292" height="70" fill="white"/>
</clipPath>
</defs>
</svg>
