<svg width="24" height="24" fill="none" viewBox="0 0 24 24">
  <path stroke="currentColor" stroke-linecap="round" stroke-linejoin="round" stroke-width="2" d="M14.596 8c-1.26 0-1.89 0-2.371.28-.423.247-.768.64-.983 1.124-.246.55-.246 1.27-.246 2.71V21m-2.25-8h6M3 12c0-2.514 0-3.77.354-4.78a6.3 6.3 0 0 1 3.865-3.866C8.23 3 9.486 3 12 3s3.77 0 4.78.354a6.3 6.3 0 0 1 3.866 3.865C21 8.23 21 9.486 21 12s0 3.77-.354 4.78a6.3 6.3 0 0 1-3.865 3.866C15.77 21 14.514 21 12 21s-3.77 0-4.78-.354a6.3 6.3 0 0 1-3.866-3.865C3 15.77 3 14.514 3 12Z"/>
</svg>
