<svg width="72" height="72" viewBox="0 0 72 72" fill="none" xmlns="http://www.w3.org/2000/svg">
<path d="M22.9805 65.4372L23.5711 64.6647C18.333 58.219 14.9 47.8004 14.9 36C14.9 24.1997 18.333 13.7809 23.5711 7.33515L22.9805 6.56266C11.6949 11.5613 3.82 22.8604 3.82 36C3.82 49.1397 11.6949 60.4388 22.9805 65.4372ZM48.4291 64.6647L49.0196 65.4372C60.3049 60.4388 68.18 49.1397 68.18 36C68.18 22.8604 60.3049 11.5613 49.0196 6.56266L48.429 7.33515C53.6671 13.7809 57.1 24.1997 57.1 36C57.1 47.8004 53.6671 58.219 48.4291 64.6647ZM36 68.18C40.0939 68.18 44.455 65.3954 47.9977 59.4906C51.4937 53.6639 53.78 45.3678 53.78 36C53.78 26.6321 51.4937 18.3361 47.9977 12.5095C44.455 6.60483 40.0939 3.82 36 3.82C31.906 3.82 27.545 6.60483 24.0021 12.5095C20.5061 18.3361 18.22 26.6321 18.22 36C18.22 45.3678 20.5061 53.6639 24.0021 59.4906C27.545 65.3954 31.906 68.18 36 68.18ZM36 0.5C55.6059 0.5 71.5 16.3939 71.5 36C71.5 55.6059 55.6059 71.5 36 71.5C16.3939 71.5 0.5 55.6059 0.5 36C0.5 16.3939 16.3939 0.5 36 0.5ZM39.46 36C39.46 37.9109 37.9109 39.46 36 39.46C34.0891 39.46 32.54 37.9109 32.54 36C32.54 34.0891 34.0891 32.54 36 32.54C37.9109 32.54 39.46 34.0891 39.46 36Z" fill="#038464" stroke="black"/>
</svg>
