<svg width="24" height="24" viewBox="0 0 24 24" fill="none" xmlns="http://www.w3.org/2000/svg">
  <path
    d="M11.56 4.04175C7.41459 4.04175 4.04199 7.41435 4.04199 11.5597C4.04199 15.7051 7.41459 19.0777 11.56 19.0777C15.7054 19.0777 19.078 15.7051 19.078 11.5597C19.078 7.41435 15.7054 4.04175 11.56 4.04175ZM11.56 15.4503C9.41096 15.4503 7.66936 13.7087 7.66936 11.5597C7.66936 9.41074 9.41096 7.66914 11.56 7.66914C13.709 7.66914 15.4506 9.41074 15.4506 11.5597C15.4506 13.7087 13.709 15.4503 11.56 15.4503Z"
    fill="#ffffff" />
  <path fill-rule="evenodd" clip-rule="evenodd"
    d="M12.1898 2.807V0C18.291 0.3262 23.1378 5.3774 23.1378 11.5598C23.1378 17.7422 18.291 22.792 12.1898 23.1196V20.3126C16.737 19.9878 20.3378 16.1882 20.3378 11.5598C20.3378 6.9314 16.737 3.1318 12.1898 2.807ZM4.9294 17.2998C3.724 15.9082 2.947 14.1358 2.8084 12.1898H0C0.1456 14.9128 1.2348 17.3838 2.9414 19.2864L4.928 17.2998H4.9294ZM10.9298 23.1196V20.3126C8.98242 20.174 7.21002 19.3984 5.81842 18.1916L3.83182 20.1782C5.73582 21.8862 8.20682 22.974 10.9284 23.1196H10.9298Z"
    fill="url(#paint0_linear_1446_8279)" />
  <defs>
    <linearGradient id="paint0_linear_1446_8279" x1="12.6435" y1="1.62556" x2="1.26431" y2="13.0047"
      gradientUnits="userSpaceOnUse">
      <stop stop-color="#0096FF" />
      <stop offset="1" stop-color="#FF1E56" />
    </linearGradient>
  </defs>
</svg>
