{
  "accessors": [
    {
      "bufferView": 2,
      "componentType": 5126,
      "count": 408,
      "max": [
        1.4169479608535767,
        1.4169479608535767,
        1.4169479608535767
      ],
      "min": [
        -1.4169479608535767,
        -1.4169479608535767,
        -1.4169479608535767
      ],
      "type": "VEC3"
    },
    {
      "bufferView": 2,
      "byteOffset": 4896,
      "componentType": 5126,
      "count": 408,
      "max": [
        0.9957533478736877,
        0.9957533478736877,
        0.9957533478736877
      ],
      "min": [
        -0.9957533478736877,
        -0.9957533478736877,
        -0.9957533478736877
      ],
      "type": "VEC3"
    },
    {
      "bufferView": 1,
      "componentType": 5126,
      "count": 408,
      "max": [
        0.8597229719161987,
        0.9847229719161987
      ],
      "min": [
        0.14027699828147888,
        0.015277000144124031
      ],
      "type": "VEC2"
    },
    {
      "bufferView": 0,
      "componentType": 5125,
      "count": 612,
      "type": "SCALAR"
    },
    {
      "bufferView": 2,
      "byteOffset": 9792,
      "componentType": 5126,
      "count": 8996,
      "max": [
        1.475000023841858,
        1.475000023841858,
        1.475000023841858
      ],
      "min": [
        -1.475000023841858,
        -1.475000023841858,
        -1.475000023841858
      ],
      "type": "VEC3"
    },
    {
      "bufferView": 2,
      "byteOffset": 117744,
      "componentType": 5126,
      "count": 8996,
      "max": [
        0.9957533478736877,
        0.9957533478736877,
        0.9957533478736877
      ],
      "min": [
        -0.9957533478736877,
        -0.9957533478736877,
        -0.9957533478736877
      ],
      "type": "VEC3"
    },
    {
      "bufferView": 1,
      "byteOffset": 3264,
      "componentType": 5126,
      "count": 8996,
      "max": [
        0.875,
        1.0
      ],
      "min": [
        0.125,
        0.0
      ],
      "type": "VEC2"
    },
    {
      "bufferView": 0,
      "byteOffset": 2448,
      "componentType": 5125,
      "count": 44928,
      "type": "SCALAR"
    },
    {
      "bufferView": 2,
      "byteOffset": 225696,
      "componentType": 5126,
      "count": 36,
      "max": [
        1.4169479608535767,
        -1.475000023841858,
        1.4169479608535767
      ],
      "min": [
        -1.4169479608535767,
        -1.475000023841858,
        -1.4169479608535767
      ],
      "type": "VEC3"
    },
    {
      "bufferView": 2,
      "byteOffset": 226128,
      "componentType": 5126,
      "count": 36,
      "max": [
        0.06509695202112198,
        -0.9957533478736877,
        0.06509695202112198
      ],
      "min": [
        -0.06509695202112198,
        -0.9957533478736877,
        -0.06509695202112198
      ],
      "type": "VEC3"
    },
    {
      "bufferView": 1,
      "byteOffset": 75232,
      "componentType": 5126,
      "count": 36,
      "max": [
        0.6097229719161987,
        0.9847229719161987
      ],
      "min": [
        0.3902769982814789,
        0.7652770280838013
      ],
      "type": "VEC2"
    },
    {
      "bufferView": 0,
      "byteOffset": 182160,
      "componentType": 5125,
      "count": 54,
      "type": "SCALAR"
    },
    {
      "bufferView": 2,
      "byteOffset": 226560,
      "componentType": 5126,
      "count": 36,
      "max": [
        1.4169479608535767,
        1.475000023841858,
        1.4169479608535767
      ],
      "min": [
        -1.4169479608535767,
        1.475000023841858,
        -1.4169479608535767
      ],
      "type": "VEC3"
    },
    {
      "bufferView": 2,
      "byteOffset": 226992,
      "componentType": 5126,
      "count": 36,
      "max": [
        0.06509695202112198,
        0.9957533478736877,
        0.06509695202112198
      ],
      "min": [
        -0.06509695202112198,
        0.9957533478736877,
        -0.06509695202112198
      ],
      "type": "VEC3"
    },
    {
      "bufferView": 1,
      "byteOffset": 75520,
      "componentType": 5126,
      "count": 36,
      "max": [
        0.6097229719161987,
        0.4847230017185211
      ],
      "min": [
        0.3902769982814789,
        0.2652769982814789
      ],
      "type": "VEC2"
    },
    {
      "bufferView": 0,
      "byteOffset": 182376,
      "componentType": 5125,
      "count": 54,
      "type": "SCALAR"
    },
    {
      "bufferView": 2,
      "byteOffset": 227424,
      "componentType": 5126,
      "count": 36,
      "max": [
        -1.475000023841858,
        1.4169479608535767,
        1.4169479608535767
      ],
      "min": [
        -1.475000023841858,
        -1.4169479608535767,
        -1.4169479608535767
      ],
      "type": "VEC3"
    },
    {
      "bufferView": 2,
      "byteOffset": 227856,
      "componentType": 5126,
      "count": 36,
      "max": [
        -0.9957533478736877,
        0.06509695202112198,
        0.06509695202112198
      ],
      "min": [
        -0.9957533478736877,
        -0.06509695202112198,
        -0.06509695202112198
      ],
      "type": "VEC3"
    },
    {
      "bufferView": 1,
      "byteOffset": 75808,
      "componentType": 5126,
      "count": 36,
      "max": [
        0.6097229719161987,
        0.23472300171852112
      ],
      "min": [
        0.3902769982814789,
        0.015277000144124031
      ],
      "type": "VEC2"
    },
    {
      "bufferView": 0,
      "byteOffset": 182592,
      "componentType": 5125,
      "count": 54,
      "type": "SCALAR"
    },
    {
      "bufferView": 2,
      "byteOffset": 228288,
      "componentType": 5126,
      "count": 390,
      "max": [
        0.5386059880256653,
        0.5386059880256653,
        0.5386059880256653
      ],
      "min": [
        -0.5386059880256653,
        -0.5386059880256653,
        -0.5386059880256653
      ],
      "type": "VEC3"
    },
    {
      "bufferView": 2,
      "byteOffset": 232968,
      "componentType": 5126,
      "count": 390,
      "max": [
        1.0,
        1.0,
        1.0
      ],
      "min": [
        -1.0,
        -1.0,
        -1.0
      ],
      "type": "VEC3"
    },
    {
      "bufferView": 1,
      "byteOffset": 76096,
      "componentType": 5126,
      "count": 390,
      "max": [
        1.0,
        1.0
      ],
      "min": [
        0.0,
        0.009999999776482582
      ],
      "type": "VEC2"
    },
    {
      "bufferView": 0,
      "byteOffset": 182808,
      "componentType": 5125,
      "count": 1116,
      "type": "SCALAR"
    },
    {
      "bufferView": 2,
      "byteOffset": 237648,
      "componentType": 5126,
      "count": 36,
      "max": [
        1.475000023841858,
        1.4169479608535767,
        1.4169479608535767
      ],
      "min": [
        1.475000023841858,
        -1.4169479608535767,
        -1.4169479608535767
      ],
      "type": "VEC3"
    },
    {
      "bufferView": 2,
      "byteOffset": 238080,
      "componentType": 5126,
      "count": 36,
      "max": [
        0.9957533478736877,
        0.06509695202112198,
        0.06509695202112198
      ],
      "min": [
        0.9957533478736877,
        -0.06509695202112198,
        -0.06509695202112198
      ],
      "type": "VEC3"
    },
    {
      "bufferView": 1,
      "byteOffset": 79216,
      "componentType": 5126,
      "count": 36,
      "max": [
        0.6097229719161987,
        0.7347229719161987
      ],
      "min": [
        0.3902769982814789,
        0.5152770280838013
      ],
      "type": "VEC2"
    },
    {
      "bufferView": 0,
      "byteOffset": 187272,
      "componentType": 5125,
      "count": 54,
      "type": "SCALAR"
    },
    {
      "bufferView": 2,
      "byteOffset": 238512,
      "componentType": 5126,
      "count": 36,
      "max": [
        1.4169479608535767,
        1.4169479608535767,
        -1.475000023841858
      ],
      "min": [
        -1.4169479608535767,
        -1.4169479608535767,
        -1.475000023841858
      ],
      "type": "VEC3"
    },
    {
      "bufferView": 2,
      "byteOffset": 238944,
      "componentType": 5126,
      "count": 36,
      "max": [
        0.06509695202112198,
        0.06509695202112198,
        -0.9957533478736877
      ],
      "min": [
        -0.06509695202112198,
        -0.06509695202112198,
        -0.9957533478736877
      ],
      "type": "VEC3"
    },
    {
      "bufferView": 1,
      "byteOffset": 79504,
      "componentType": 5126,
      "count": 36,
      "max": [
        0.3597230017185211,
        0.7347229719161987
      ],
      "min": [
        0.14027699828147888,
        0.5152770280838013
      ],
      "type": "VEC2"
    },
    {
      "bufferView": 0,
      "byteOffset": 187488,
      "componentType": 5125,
      "count": 54,
      "type": "SCALAR"
    },
    {
      "bufferView": 2,
      "byteOffset": 239376,
      "componentType": 5126,
      "count": 36,
      "max": [
        1.4169479608535767,
        1.4169479608535767,
        1.475000023841858
      ],
      "min": [
        -1.4169479608535767,
        -1.4169479608535767,
        1.475000023841858
      ],
      "type": "VEC3"
    },
    {
      "bufferView": 2,
      "byteOffset": 239808,
      "componentType": 5126,
      "count": 36,
      "max": [
        0.06509695202112198,
        0.06509695202112198,
        0.9957533478736877
      ],
      "min": [
        -0.06509695202112198,
        -0.06509695202112198,
        0.9957533478736877
      ],
      "type": "VEC3"
    },
    {
      "bufferView": 1,
      "byteOffset": 79792,
      "componentType": 5126,
      "count": 36,
      "max": [
        0.8597229719161987,
        0.7347229719161987
      ],
      "min": [
        0.6402770280838013,
        0.5152770280838013
      ],
      "type": "VEC2"
    },
    {
      "bufferView": 0,
      "byteOffset": 187704,
      "componentType": 5125,
      "count": 54,
      "type": "SCALAR"
    }
  ],
  "asset": {
    "extras": {
      "author": "smakologg (https://sketchfab.com/smakologg)",
      "license": "CC-BY-4.0 (http://creativecommons.org/licenses/by/4.0/)",
      "source": "https://sketchfab.com/3d-models/the-rubiks-cube-high-poly-by-smakologg-3527bfcda2e1492395142423021c3ff2",
      "title": "The rubik's cube [high-poly] - by smakologg"
    },
    "generator": "Sketchfab-16.15.0",
    "version": "2.0"
  },
  "bufferViews": [
    {
      "buffer": 0,
      "byteLength": 187920,
      "name": "floatBufferViews",
      "target": 34963
    },
    {
      "buffer": 0,
      "byteLength": 80080,
      "byteOffset": 187920,
      "byteStride": 8,
      "name": "floatBufferViews",
      "target": 34962
    },
    {
      "buffer": 0,
      "byteLength": 240240,
      "byteOffset": 268000,
      "byteStride": 12,
      "name": "floatBufferViews",
      "target": 34962
    }
  ],
  "buffers": [
    {
      "byteLength": 508240,
      "uri": "scene.bin"
    }
  ],
  "extensionsUsed": [
    "KHR_materials_specular"
  ],
  "materials": [
    {
      "doubleSided": true,
      "name": "Material.001",
      "pbrMetallicRoughness": {
        "baseColorFactor": [
          0.0,
          0.0,
          0.0,
          1.0
        ],
        "metallicFactor": 0.0
      }
    },
    {
      "doubleSided": true,
      "name": "Material.002",
      "pbrMetallicRoughness": {
        "baseColorFactor": [
          0.070243,
          0.070243,
          0.070243,
          1.0
        ],
        "metallicFactor": 0.0
      }
    },
    {
      "doubleSided": true,
      "extensions": {
        "KHR_materials_specular": {
          "specularColorFactor": [
            1.0,
            1.0,
            1.0
          ],
          "specularFactor": 1.0
        }
      },
      "name": "blue",
      "pbrMetallicRoughness": {
        "baseColorFactor": [
          0.0,
          0.3521589999999999,
          0.8002660000000001,
          1.0
        ],
        "metallicFactor": 0.0,
        "roughnessFactor": 0.0
      }
    },
    {
      "doubleSided": true,
      "extensions": {
        "KHR_materials_specular": {
          "specularColorFactor": [
            1.0,
            1.0,
            1.0
          ],
          "specularFactor": 1.0
        }
      },
      "name": "green",
      "pbrMetallicRoughness": {
        "baseColorFactor": [
          0.0,
          0.7227009999999997,
          0.008311000000000011,
          1.0
        ],
        "metallicFactor": 0.0,
        "roughnessFactor": 0.0
      }
    },
    {
      "doubleSided": true,
      "extensions": {
        "KHR_materials_specular": {
          "specularColorFactor": [
            1.0,
            1.0,
            1.0
          ],
          "specularFactor": 1.0
        }
      },
      "name": "orange",
      "pbrMetallicRoughness": {
        "baseColorFactor": [
          0.800126,
          0.320832,
          0.027439999999999982,
          1.0
        ],
        "metallicFactor": 0.0,
        "roughnessFactor": 0.0
      }
    },
    {
      "doubleSided": true,
      "name": "perekrestie",
      "pbrMetallicRoughness": {
        "baseColorFactor": [
          0.0,
          0.0,
          0.0,
          1.0
        ],
        "metallicFactor": 0.0
      }
    },
    {
      "doubleSided": true,
      "extensions": {
        "KHR_materials_specular": {
          "specularColorFactor": [
            1.0,
            1.0,
            1.0
          ],
          "specularFactor": 1.0
        }
      },
      "name": "material",
      "pbrMetallicRoughness": {
        "baseColorFactor": [
          0.8001189999999998,
          0.0,
          0.007606000000000034,
          1.0
        ],
        "metallicFactor": 0.0,
        "roughnessFactor": 0.0
      }
    },
    {
      "doubleSided": true,
      "extensions": {
        "KHR_materials_specular": {
          "specularColorFactor": [
            1.0,
            1.0,
            1.0
          ],
          "specularFactor": 1.0
        }
      },
      "name": "wight",
      "pbrMetallicRoughness": {
        "metallicFactor": 0.0,
        "roughnessFactor": 0.0
      }
    },
    {
      "doubleSided": true,
      "extensions": {
        "KHR_materials_specular": {
          "specularColorFactor": [
            1.0,
            1.0,
            1.0
          ],
          "specularFactor": 1.0
        }
      },
      "name": "yellow",
      "pbrMetallicRoughness": {
        "baseColorFactor": [
          0.800157,
          0.6647200000000001,
          0.0017610000000000052,
          1.0
        ],
        "metallicFactor": 0.0,
        "roughnessFactor": 0.0
      }
    }
  ],
  "meshes": [
    {
      "name": "Object_0",
      "primitives": [
        {
          "attributes": {
            "NORMAL": 1,
            "POSITION": 0,
            "TEXCOORD_0": 2
          },
          "indices": 3,
          "material": 0,
          "mode": 4
        }
      ]
    },
    {
      "name": "Object_1",
      "primitives": [
        {
          "attributes": {
            "NORMAL": 5,
            "POSITION": 4,
            "TEXCOORD_0": 6
          },
          "indices": 7,
          "material": 1,
          "mode": 4
        }
      ]
    },
    {
      "name": "Object_2",
      "primitives": [
        {
          "attributes": {
            "NORMAL": 9,
            "POSITION": 8,
            "TEXCOORD_0": 10
          },
          "indices": 11,
          "material": 2,
          "mode": 4
        }
      ]
    },
    {
      "name": "Object_3",
      "primitives": [
        {
          "attributes": {
            "NORMAL": 13,
            "POSITION": 12,
            "TEXCOORD_0": 14
          },
          "indices": 15,
          "material": 3,
          "mode": 4
        }
      ]
    },
    {
      "name": "Object_4",
      "primitives": [
        {
          "attributes": {
            "NORMAL": 17,
            "POSITION": 16,
            "TEXCOORD_0": 18
          },
          "indices": 19,
          "material": 4,
          "mode": 4
        }
      ]
    },
    {
      "name": "Object_5",
      "primitives": [
        {
          "attributes": {
            "NORMAL": 21,
            "POSITION": 20,
            "TEXCOORD_0": 22
          },
          "indices": 23,
          "material": 5,
          "mode": 4
        }
      ]
    },
    {
      "name": "Object_6",
      "primitives": [
        {
          "attributes": {
            "NORMAL": 25,
            "POSITION": 24,
            "TEXCOORD_0": 26
          },
          "indices": 27,
          "material": 6,
          "mode": 4
        }
      ]
    },
    {
      "name": "Object_7",
      "primitives": [
        {
          "attributes": {
            "NORMAL": 29,
            "POSITION": 28,
            "TEXCOORD_0": 30
          },
          "indices": 31,
          "material": 7,
          "mode": 4
        }
      ]
    },
    {
      "name": "Object_8",
      "primitives": [
        {
          "attributes": {
            "NORMAL": 33,
            "POSITION": 32,
            "TEXCOORD_0": 34
          },
          "indices": 35,
          "material": 8,
          "mode": 4
        }
      ]
    }
  ],
  "nodes": [
    {
      "children": [
        1
      ],
      "matrix": [
        1.0,
        0.0,
        0.0,
        0.0,
        0.0,
        2.220446049250313e-16,
        -1.0,
        0.0,
        0.0,
        1.0,
        2.220446049250313e-16,
        0.0,
        0.0,
        0.0,
        0.0,
        1.0
      ],
      "name": "Sketchfab_model"
    },
    {
      "children": [
        2,
        3,
        4,
        5,
        6,
        7,
        8,
        9,
        10
      ],
      "name": "untitled.obj.cleaner.materialmerger.gles"
    },
    {
      "mesh": 0,
      "name": "Object_2"
    },
    {
      "mesh": 1,
      "name": "Object_3"
    },
    {
      "mesh": 2,
      "name": "Object_4"
    },
    {
      "mesh": 3,
      "name": "Object_5"
    },
    {
      "mesh": 4,
      "name": "Object_6"
    },
    {
      "mesh": 5,
      "name": "Object_7"
    },
    {
      "mesh": 6,
      "name": "Object_8"
    },
    {
      "mesh": 7,
      "name": "Object_9"
    },
    {
      "mesh": 8,
      "name": "Object_10"
    }
  ],
  "scene": 0,
  "scenes": [
    {
      "name": "Sketchfab_Scene",
      "nodes": [
        0
      ]
    }
  ]
}
