<svg width="40" height="26" viewBox="0 0 40 26" fill="none" xmlns="http://www.w3.org/2000/svg">
<path d="M25.5523 2.30803C24.8772 2.21402 24.1988 2.16675 23.5175 2.16675C22.4127 2.16675 21.3901 2.2914 20.4492 2.54069C19.5083 2.78999 18.6905 3.17794 17.9952 3.70384C17.2999 4.23009 16.7574 4.9006 16.3689 5.71502C15.9805 6.52926 15.7861 7.50141 15.7861 8.63147V24.2667H20.6336V8.43189C20.6336 7.87833 20.7086 7.40739 20.8588 7.01945C21.0085 6.63185 21.23 6.3162 21.5233 6.07233C21.8165 5.82846 22.1742 5.65409 22.5971 5.54853C23.0196 5.44349 23.5035 5.39062 24.049 5.39062C24.5532 5.39062 25.0888 5.42686 25.6548 5.49863C26.2204 5.57094 26.7696 5.66197 27.3011 5.77261V2.64853C26.8105 2.51531 26.2273 2.40169 25.5523 2.30768V2.30803Z" fill="#0D0D0D"/>
<path d="M23.4492 15.1861H9.96777L13.8197 11.2474H27.3011L23.4492 15.1861Z" fill="#0D0D0D"/>
<path d="M0 0H6.06667V2.6H2.6V23.4H6.06667V26H0V0Z" fill="#0D0D0D"/>
<path d="M39.8665 26H33.7998V23.4H37.2665V2.6H33.7998V0H39.8665V26Z" fill="#0D0D0D"/>
</svg>
