<svg width="70" height="70" viewBox="0 0 70 70" fill="none" xmlns="http://www.w3.org/2000/svg">
<g clip-path="url(#clip0_1713_9483)">
<path d="M70 0H0V70.0648H70V0Z" fill="url(#paint0_linear_1713_9483)"/>
<path d="M41.9992 37.2909H22.437C22.0577 35.9005 21.1866 34.6962 19.9865 33.9034C18.7864 33.1106 17.3396 32.7834 15.9166 32.9831C14.4935 33.1828 13.1917 33.8957 12.2546 34.9884C11.3174 36.0812 10.809 37.479 10.8246 38.9205C10.8401 40.362 11.3784 41.7485 12.3389 42.8207C13.2994 43.8929 14.6163 44.5774 16.0433 44.7462C17.4703 44.915 18.9097 44.5566 20.0924 43.7379C21.2751 42.9192 22.1201 41.6964 22.4694 40.298H42.0001L41.9992 37.2909Z" fill="white"/>
<path d="M53.2133 25.2778C51.8983 25.2789 50.6213 25.7189 49.5849 26.5282C48.5486 27.3374 47.8123 28.4694 47.493 29.7446H27.9355V32.7367H47.5205C47.8116 33.7971 48.3934 34.7551 49.2003 35.5024C50.0073 36.2498 51.0071 36.7568 52.087 36.9662C53.167 37.1756 54.2839 37.0791 55.3119 36.6875C56.3398 36.296 57.2378 35.625 57.9045 34.7504C58.5711 33.8757 58.9799 32.8322 59.0847 31.7376C59.1894 30.643 58.9859 29.5409 58.4973 28.5558C58.0086 27.5707 57.2541 26.7417 56.319 26.1625C55.384 25.5833 54.3056 25.2768 53.2055 25.2778H53.2133Z" fill="white"/>
</g>
<defs>
<linearGradient id="paint0_linear_1713_9483" x1="0" y1="35.0324" x2="70" y2="35.0324" gradientUnits="userSpaceOnUse">
<stop stop-color="#05BE68"/>
<stop offset="1" stop-color="#043D39"/>
</linearGradient>
<clipPath id="clip0_1713_9483">
<rect width="70" height="70" rx="16" fill="white"/>
</clipPath>
</defs>
</svg>
