<svg width="70" height="70" viewBox="0 0 70 70" fill="none" xmlns="http://www.w3.org/2000/svg">
<rect width="70" height="70" rx="16" fill="#180A29"/>
<path d="M25.212 21.8051C25.7275 22.3206 26.0171 23.0198 26.0171 23.7489C26.0171 24.4779 25.7275 25.1771 25.212 25.6926L16.5574 34.3472C16.2497 34.6549 16.0768 35.0723 16.0768 35.5074C16.0768 35.9426 16.2497 36.3599 16.5574 36.6677L22.0737 42.1839C22.226 42.3364 22.4068 42.4573 22.6059 42.5398C22.805 42.6223 23.0184 42.6648 23.2339 42.6648C23.4494 42.6648 23.6628 42.6223 23.8618 42.5398C24.0609 42.4573 24.2418 42.3364 24.3941 42.1839L33.0331 33.5463C33.5528 33.0268 34.2576 32.735 34.9925 32.735C35.7273 32.735 36.4321 33.0268 36.9518 33.5463C37.4713 34.0661 37.7631 34.7708 37.7631 35.5057C37.7631 36.2405 37.4713 36.9453 36.9518 37.465L25.6143 48.7983C24.992 49.4203 24.1481 49.7697 23.2683 49.7697C22.3884 49.7697 21.5446 49.4203 20.9223 48.7983L9.97138 37.8502C9.3494 37.2279 9 36.3841 9 35.5042C9 34.6244 9.3494 33.7806 9.97138 33.1583L21.3217 21.8079C21.5768 21.5521 21.8799 21.349 22.2136 21.2104C22.5472 21.0718 22.905 21.0003 23.2663 21C23.6276 20.9997 23.9854 21.0707 24.3193 21.2089C24.6532 21.347 24.9565 21.5496 25.212 21.8051Z" fill="white"/>
<path d="M44.7935 49.1868C44.5358 48.9298 44.3313 48.6245 44.1918 48.2883C44.0523 47.9522 43.9805 47.5918 43.9805 47.2278C43.9805 46.8639 44.0523 46.5035 44.1918 46.1673C44.3313 45.8311 44.5358 45.5258 44.7935 45.2688L53.3977 36.6674C53.7053 36.3595 53.8781 35.942 53.8781 35.5068C53.8781 35.0716 53.7053 34.6542 53.3977 34.3463L44.7928 25.7427C44.2733 25.223 43.9815 24.5182 43.9815 23.7834C43.9815 23.0485 44.2733 22.3437 44.7928 21.824C45.3125 21.3045 46.0173 21.0127 46.7521 21.0127C47.487 21.0127 48.1917 21.3045 48.7115 21.824L60.1703 33.2836C60.4625 33.5756 60.6943 33.9223 60.8525 34.3039C61.0106 34.6854 61.092 35.0945 61.092 35.5075C61.092 35.9206 61.0106 36.3296 60.8525 36.7112C60.6943 37.0928 60.4625 37.4395 60.1703 37.7315L48.7115 49.1868C48.4545 49.4445 48.1491 49.649 47.813 49.7885C47.4768 49.928 47.1164 49.9998 46.7525 49.9998C46.3885 49.9998 46.0281 49.928 45.692 49.7885C45.3558 49.649 45.0505 49.4445 44.7935 49.1868Z" fill="white"/>
<path d="M32.2852 47.2704C32.2852 47.8086 32.4448 48.3348 32.7438 48.7823C33.0428 49.2298 33.4678 49.5786 33.965 49.7845C34.4623 49.9905 35.0094 50.0444 35.5373 49.9394C36.0651 49.8344 36.55 49.5752 36.9306 49.1946C37.3112 48.8141 37.5703 48.3292 37.6753 47.8013C37.7803 47.2735 37.7265 46.7263 37.5205 46.2291C37.3145 45.7318 36.9657 45.3068 36.5182 45.0078C36.0707 44.7088 35.5446 44.5492 35.0064 44.5492C34.2847 44.5492 33.5925 44.8359 33.0822 45.3462C32.5719 45.8566 32.2852 46.5487 32.2852 47.2704Z" fill="white"/>
<path d="M48.6476 37.4771C49.7103 36.4144 49.7103 34.6914 48.6476 33.6286C47.5849 32.5659 45.8619 32.5659 44.7992 33.6286C43.7365 34.6914 43.7365 36.4144 44.7992 37.4771C45.8619 38.5398 47.5849 38.5398 48.6476 37.4771Z" fill="white"/>
<path d="M36.8418 43.7517C36.8417 44.0844 36.9402 44.4097 37.1249 44.6864C37.3096 44.963 37.5723 45.1787 37.8796 45.3062C38.1869 45.4336 38.5252 45.467 38.8515 45.4022C39.1778 45.3373 39.4776 45.1772 39.7129 44.942C39.9482 44.7068 40.1084 44.4071 40.1734 44.0808C40.2383 43.7545 40.2051 43.4163 40.0778 43.1089C39.9505 42.8015 39.7349 42.5388 39.4583 42.3539C39.1817 42.1691 38.8565 42.0704 38.5238 42.0704C38.3029 42.0703 38.0842 42.1138 37.8802 42.1982C37.6761 42.2827 37.4907 42.4065 37.3345 42.5626C37.1783 42.7187 37.0544 42.9041 36.9698 43.1081C36.8853 43.3122 36.8418 43.5309 36.8418 43.7517Z" fill="white"/>
<path d="M44.3942 40.2605C45.051 39.6037 45.051 38.5387 44.3942 37.8818C43.7373 37.225 42.6724 37.225 42.0155 37.8818C41.3587 38.5387 41.3587 39.6037 42.0155 40.2605C42.6724 40.9174 43.7373 40.9174 44.3942 40.2605Z" fill="white"/>
<path d="M41.5991 42.1461C42.005 41.7403 42.005 41.0822 41.5991 40.6764C41.1933 40.2705 40.5353 40.2705 40.1294 40.6764C39.7235 41.0822 39.7235 41.7403 40.1294 42.1461C40.5353 42.552 41.1933 42.552 41.5991 42.1461Z" fill="white"/>
<path d="M23.231 38.3845C24.7339 38.3845 25.9522 37.1662 25.9522 35.6633C25.9522 34.1604 24.7339 32.942 23.231 32.942C21.7281 32.942 20.5098 34.1604 20.5098 35.6633C20.5098 37.1662 21.7281 38.3845 23.231 38.3845Z" fill="white"/>
<path d="M34.9498 26.6668C36.4527 26.6668 37.671 25.4485 37.671 23.9456C37.671 22.4427 36.4527 21.2244 34.9498 21.2244C33.4469 21.2244 32.2285 22.4427 32.2285 23.9456C32.2285 25.4485 33.4469 26.6668 34.9498 26.6668Z" fill="white"/>
<path d="M27.9391 33.3342C28.596 32.6774 28.596 31.6124 27.9391 30.9556C27.2823 30.2987 26.2173 30.2987 25.5604 30.9556C24.9036 31.6124 24.9036 32.6774 25.5604 33.3342C26.2173 33.9911 27.2823 33.9911 27.9391 33.3342Z" fill="white"/>
<path d="M33.112 27.4641C33.1116 27.1317 33.0126 26.8068 32.8277 26.5306C32.6427 26.2543 32.3801 26.0391 32.0729 25.912C31.7657 25.7849 31.4277 25.7518 31.1016 25.8167C30.7756 25.8816 30.4761 26.0417 30.2409 26.2767C30.0058 26.5117 29.8456 26.8112 29.7806 27.1372C29.7155 27.4632 29.7485 27.8012 29.8755 28.1085C30.0024 28.4157 30.2175 28.6785 30.4937 28.8636C30.7699 29.0486 31.0947 29.1477 31.4272 29.1483C31.6485 29.1487 31.8677 29.1055 32.0723 29.021C32.2769 28.9366 32.4628 28.8125 32.6193 28.6561C32.7759 28.4996 32.9 28.3138 32.9845 28.1092C33.069 27.9047 33.1124 27.6855 33.112 27.4641Z" fill="white"/>
<path d="M30.1293 29.804C30.1293 29.5985 30.0684 29.3976 29.9542 29.2267C29.84 29.0557 29.6777 28.9225 29.4878 28.8439C29.2979 28.7652 29.0889 28.7446 28.8873 28.7847C28.6857 28.8248 28.5005 28.9238 28.3552 29.0692C28.2098 29.2145 28.1109 29.3997 28.0708 29.6013C28.0307 29.8029 28.0512 30.0118 28.1299 30.2017C28.2085 30.3916 28.3418 30.554 28.5127 30.6682C28.6836 30.7823 28.8845 30.8433 29.09 30.8433C29.3657 30.8433 29.63 30.7338 29.8249 30.5389C30.0198 30.344 30.1293 30.0797 30.1293 29.804Z" fill="white"/>
<path d="M44.3942 33.3339C45.051 32.677 45.051 31.6121 44.3942 30.9552C43.7373 30.2983 42.6724 30.2983 42.0155 30.9552C41.3587 31.612 41.3587 32.677 42.0155 33.3339C42.6724 33.9907 43.7373 33.9907 44.3942 33.3339Z" fill="white"/>
<path d="M39.7125 28.6532C40.3694 27.9964 40.3694 26.9314 39.7125 26.2745C39.0557 25.6177 37.9907 25.6177 37.3339 26.2745C36.677 26.9314 36.677 27.9964 37.3339 28.6532C37.9907 29.3101 39.0557 29.3101 39.7125 28.6532Z" fill="white"/>
<path d="M41.5991 30.5393C42.005 30.1335 42.005 29.4754 41.5991 29.0696C41.1933 28.6637 40.5353 28.6637 40.1294 29.0696C39.7235 29.4754 39.7235 30.1335 40.1294 30.5393C40.5353 30.9452 41.1933 30.9452 41.5991 30.5393Z" fill="white"/>
</svg>
