<svg width="70" height="70" viewBox="0 0 70 70" fill="none" xmlns="http://www.w3.org/2000/svg">
<rect width="70" height="70" rx="16" fill="black"/>
<g clip-path="url(#clip0_1716_9493)">
<path d="M10.721 35.7975C10.9836 36.3833 11.5716 36.6761 12.4849 36.6758C13.0523 36.6758 13.5302 36.5078 13.9186 36.1717L15.8086 37.381C15.0313 38.2738 13.9025 38.7202 12.422 38.7202C11.0885 38.7202 10.0202 38.3627 9.21698 37.6476C8.41377 36.9326 8.01201 36.028 8.01172 34.9337C8.01172 33.8494 8.40551 32.9424 9.19308 32.2128C9.98066 31.4832 10.9839 31.1184 12.2029 31.1184C13.3791 31.1184 14.3504 31.4784 15.1167 32.1983C15.8831 32.9181 16.2666 33.8204 16.2676 34.9049C16.2696 35.2054 16.2326 35.505 16.1573 35.7975H10.721ZM10.6909 34.1419H13.7149C13.5048 33.4703 13.0113 33.1343 12.2343 33.1341C11.4249 33.1341 10.9105 33.47 10.6909 34.1419Z" fill="#E0E0E0"/>
<path d="M23.2207 31.3203H25.8353V40.7504H23.2207V37.8568C22.6867 38.4324 21.9411 38.7202 20.9842 38.7202C19.9343 38.7202 19.0549 38.3578 18.3461 37.6331C17.6373 36.9084 17.2837 36.0038 17.2852 34.9195C17.2852 33.8349 17.6393 32.9303 18.3475 32.2055C19.0556 31.4808 19.935 31.1184 20.9855 31.1184C21.941 31.1184 22.6865 31.4065 23.2221 31.9826L23.2207 31.3203ZM20.3698 36.0568C20.6743 36.3449 21.0727 36.4888 21.5649 36.4885C22.0571 36.4882 22.4555 36.3444 22.76 36.0568C23.0645 35.7688 23.2168 35.3896 23.2168 34.9195C23.2168 34.4494 23.0645 34.0703 22.76 33.7822C22.4555 33.4941 22.0571 33.3501 21.5649 33.3501C21.0727 33.3501 20.6743 33.4941 20.3698 33.7822C20.0653 34.0711 19.913 34.4502 19.913 34.9195C19.913 35.3888 20.0653 35.768 20.3698 36.0568Z" fill="#E0E0E0"/>
<path d="M32.0309 31.3203H34.6455V38.5183H32.0309V37.7986C31.5587 38.4133 30.829 38.7205 29.8417 38.7202C28.9909 38.7202 28.2953 38.4539 27.7547 37.9212C27.2141 37.3885 26.9437 36.623 26.9434 35.6247V31.3203H29.5579V35.3225C29.5579 35.6969 29.6656 35.9801 29.8811 36.1722C30.0964 36.3642 30.3833 36.4601 30.7415 36.4598C31.1511 36.4598 31.4688 36.347 31.6945 36.1216C31.9202 35.8961 32.0331 35.5724 32.0331 35.1506L32.0309 31.3203Z" fill="#E0E0E0"/>
<path d="M41.5699 31.3204H44.1843V38.5184H41.5699V37.8569C41.0341 38.4328 40.2886 38.7207 39.3331 38.7207C38.2829 38.7207 37.4036 38.3583 36.6951 37.6336C35.9866 36.9088 35.6325 36.0043 35.6328 34.92C35.6328 33.8354 35.9869 32.9308 36.6951 32.206C37.4033 31.4813 38.2827 31.1189 39.3331 31.1189C40.2883 31.1189 41.0338 31.407 41.5699 31.9831V31.3204ZM38.7188 36.0569C39.0233 36.345 39.4217 36.4889 39.9139 36.4886C40.4061 36.4883 40.8044 36.3444 41.1089 36.0569C41.4134 35.7688 41.5656 35.3897 41.5656 34.9196C41.5656 34.4495 41.4134 34.0704 41.1089 33.7823C40.8044 33.4942 40.4061 33.3502 39.9139 33.3502C39.4217 33.3502 39.0233 33.4942 38.7188 33.7823C38.4143 34.0698 38.262 34.4489 38.262 34.9196C38.262 35.3903 38.4143 35.7694 38.7188 36.0569Z" fill="#E0E0E0"/>
<path d="M45.1641 38.5184V29.0773H47.7788V38.5184H45.1641Z" fill="#E0E0E0"/>
<path d="M51.5002 33.3911C51.5002 33.5135 51.6375 33.6151 51.9121 33.6957L52.8714 33.9789L54.0102 34.3131C54.4045 34.4288 54.7357 34.6591 55.0034 35.0038C55.2714 35.3485 55.4051 35.7816 55.4048 36.3033C55.4048 37.1287 55.0672 37.7381 54.3915 38.1316C53.7155 38.5251 52.9133 38.7219 51.9849 38.7219C50.2208 38.7219 49.0449 38.1508 48.457 37.0085L50.7406 35.9566C50.9401 36.4847 51.3496 36.7486 51.9693 36.7483C52.4413 36.7483 52.6775 36.6202 52.6775 36.364C52.6775 36.2313 52.5448 36.1212 52.2751 36.0403L51.3294 35.7442L50.2042 35.3889C49.8126 35.2642 49.4723 35.032 49.2303 34.7242C48.9678 34.4029 48.8367 34.0071 48.837 33.5367C48.837 32.7688 49.1483 32.1736 49.7709 31.7513C50.3935 31.3289 51.143 31.1177 52.0194 31.1177C53.5734 31.1177 54.655 31.6744 55.2643 32.7878L53.0591 33.6949C52.8281 33.2822 52.5025 33.0759 52.0825 33.0759C51.6944 33.0764 51.5002 33.1815 51.5002 33.3911Z" fill="#E0E0E0"/>
<path d="M60.6265 30.1252C59.7736 29.3787 58.6513 29 57.2915 29C55.9428 29 54.8261 29.3815 53.9718 30.1328C53.6637 30.4037 53.4032 30.7164 53.1992 31.0598C53.3088 31.084 53.4149 31.112 53.5177 31.1435C53.7008 30.8494 53.9292 30.581 54.1963 30.3465C54.9874 29.649 56.0287 29.2945 57.2915 29.2945C58.5657 29.2945 59.6129 29.6457 60.404 30.338C61.1948 31.0302 61.5933 31.941 61.5933 33.0487C61.5933 33.853 61.376 34.5704 60.9469 35.1821L57.1171 40.4661H54.7327L57.4675 36.8094L57.1669 36.8049C56.6201 36.8012 56.0778 36.7134 55.5625 36.5452C55.5567 36.6462 55.5446 36.7468 55.5271 36.8466C55.9601 36.9821 56.4109 37.0638 56.868 37.0894L54.1205 40.7622H57.2879L61.1307 35.4621L61.1658 35.4139C61.6619 34.7387 61.9134 33.9441 61.9134 33.0515C61.915 31.8576 61.4814 30.8732 60.6265 30.1252Z" fill="#E0E0E0"/>
</g>
<defs>
<clipPath id="clip0_1716_9493">
<rect width="54" height="12" fill="white" transform="translate(8 29)"/>
</clipPath>
</defs>
</svg>
