<svg width="100%" height="100%" viewBox="0 0 1000 1000" fill="none" xmlns="http://www.w3.org/2000/svg">
  <path
    d="M500 1000C432.57 1000 366.978 986.712 305.343 960.701C245.83 935.538 192.395 899.491 146.452 853.548C100.509 807.605 64.4614 754.17 39.2988 694.656C13.2881 633.022 0 567.571 0 500C0 432.57 13.2881 366.978 39.2988 305.343C64.4614 245.83 100.509 192.395 146.452 146.452C192.395 100.509 245.83 64.4614 305.343 39.2988C366.978 13.2881 432.429 0 500 0C567.571 0 633.022 13.2881 694.656 39.2988C754.17 64.4614 807.605 100.509 853.548 146.452C899.491 192.395 935.538 245.83 960.701 305.343C986.712 366.978 1000 432.429 1000 500C1000 567.43 986.712 633.022 960.701 694.656C935.538 754.17 899.491 807.605 853.548 853.548C807.605 899.491 754.17 935.538 694.656 960.701C633.022 986.712 567.43 1000 500 1000Z"
    fill="url(#paint0_linear_11_3)" />
  <path
    d="M0.00012207 500C0.00012207 567.43 13.2882 633.022 39.299 694.657C64.4615 754.17 100.509 807.605 146.452 853.548C192.395 899.491 245.83 935.539 305.344 960.701C366.978 986.712 432.429 1000 500 1000C567.571 1000 633.022 986.712 694.657 960.701C754.17 935.539 807.605 899.491 853.548 853.548C899.491 807.605 935.539 754.17 960.701 694.657C986.712 633.022 1000 567.571 1000 500C1000 450.947 992.932 402.884 979.078 356.658H20.9218C7.06826 402.884 0.00012207 450.947 0.00012207 500Z"
    fill="url(#paint1_linear_11_3)" />
  <path
    d="M960.701 694.656C971.869 668.222 980.633 641.08 987.136 613.514C943.031 619.734 890.727 625.53 853.69 623.834C777.071 620.582 734.662 568.137 655.782 558.241C576.901 548.346 475.968 537.885 419.423 479.078C362.878 420.271 318.773 246.113 209.076 280.04C139.667 301.527 69.8333 359.203 5.08917 428.895C1.83783 452.219 0.141479 475.968 0.141479 500C0.141479 567.43 13.4296 633.022 39.4403 694.656C64.6029 754.17 100.65 807.605 146.593 853.548C192.536 899.491 245.971 935.539 305.485 960.701C367.119 986.712 432.57 1000 500.141 1000C567.713 1000 633.164 986.712 694.798 960.701C754.312 935.539 807.747 899.491 853.69 853.548C899.491 807.605 935.539 754.17 960.701 694.656Z"
    fill="url(#paint2_linear_11_3)" />
  <path
    d="M714.165 951.937C714.589 951.654 715.154 951.513 715.578 951.23C722.364 947.978 738.62 939.355 745.264 935.821C743.427 935.68 609.273 928.753 472.576 859.909C318.49 782.301 240.599 679.813 213.458 586.655C212.892 584.959 212.327 583.121 211.903 581.142C205.259 556.404 202.149 532.513 202.007 510.178C201.442 405.004 257.987 350.721 228.725 346.056C171.473 337.009 89.7655 509.613 142.211 666.667C143.201 671.049 189.85 808.595 311.988 963.387C371.643 987.701 434.973 1000 500 1000C567.43 1000 633.022 986.712 694.657 960.701C698.191 959.146 701.725 957.591 705.259 956.036C708.227 954.764 711.196 953.35 714.165 951.937Z"
    fill="url(#paint3_linear_11_3)" />
  <path
    d="M973.282 619.027C973.989 616.059 974.837 612.949 975.544 609.98C793.186 630.761 746.537 565.027 691.829 547.639C662.567 538.309 635.143 543.257 608.708 539.016C485.298 519.508 384.648 392.564 455.047 317.925C517.67 251.484 600.368 307.181 613.232 324.71C616.483 277.919 582.556 191.971 505.655 168.787C511.026 177.552 519.65 193.95 519.791 214.023C316.37 112.666 103.195 209.5 26.2936 382.386C16.9637 420.13 12.016 459.57 12.016 500.141C12.016 519.791 13.1469 539.299 15.5501 558.383C18.8014 508.058 81.2837 395.109 110.97 407.973C140.232 420.696 61.4929 528.697 142.211 666.808C89.7655 509.754 171.614 337.15 228.725 346.197C257.987 350.862 201.442 405.146 202.007 510.32C202.714 629.347 288.663 791.349 537.461 888.606C283.432 779.616 221.798 591.32 265.621 568.42C302.94 548.912 327.114 690.981 503.11 790.642C607.436 849.731 740.882 865.988 822.307 866.554C825.983 863.302 829.517 860.051 833.051 856.8C404.298 827.537 303.647 517.953 363.161 491.236C404.722 472.576 434.973 615.917 605.739 699.321C527.142 643.625 520.356 611.818 539.158 602.912C566.158 590.189 687.164 745.688 892.847 671.614C716.426 718.264 590.896 611.394 625.247 573.65C656.913 538.592 763.642 669.211 973.282 619.027Z"
    fill="white" />
  <path
    d="M464.659 456.319C428.329 411.224 417.868 357.365 455.047 317.925C517.67 251.484 600.368 307.181 613.09 324.71C562.765 225.332 416.313 186.175 362.595 254.029C308.878 321.883 358.779 419.423 464.659 456.319Z"
    fill="url(#paint4_linear_11_3)" />
  <path
    d="M537.32 888.323C315.239 792.904 240.175 636.981 254.312 584.111C256.291 576.619 260.107 571.105 265.621 568.278C266.61 567.713 267.6 567.43 268.589 567.147C268.731 567.147 269.013 567.006 269.155 567.006C269.437 566.865 269.861 566.865 270.144 566.865C270.427 566.865 270.568 566.723 270.851 566.723C271.134 566.723 271.416 566.723 271.841 566.723C272.123 566.723 272.406 566.723 272.689 566.723C272.971 566.723 273.254 566.723 273.537 566.723C273.82 566.723 274.102 566.723 274.385 566.865C274.668 566.865 274.951 567.006 275.233 567.006C275.516 567.006 275.799 567.147 276.081 567.147C276.364 567.289 276.647 567.289 276.93 567.43C277.212 567.571 277.495 567.571 277.919 567.713C278.202 567.854 278.485 567.995 278.767 567.995C279.05 568.137 279.474 568.278 279.757 568.42C280.04 568.561 280.322 568.702 280.605 568.844C280.888 568.985 281.312 569.268 281.595 569.409C281.877 569.55 282.16 569.692 282.301 569.975C282.584 570.257 283.008 570.399 283.291 570.681C283.574 570.823 283.856 571.106 283.998 571.247C284.28 571.53 284.705 571.812 284.987 572.095C285.27 572.236 285.553 572.519 285.694 572.802C285.977 573.085 286.401 573.367 286.825 573.791C287.108 574.074 287.39 574.215 287.673 574.498C288.097 574.781 288.38 575.205 288.804 575.488C289.087 575.77 289.37 576.053 289.652 576.336C290.076 576.76 290.359 577.043 290.783 577.467C291.066 577.75 291.349 578.032 291.631 578.315C292.055 578.739 292.338 579.163 292.762 579.587C293.045 579.87 293.328 580.153 293.61 580.577C294.034 581.001 294.317 581.425 294.741 581.99C295.024 582.273 295.307 582.697 295.589 582.98C296.014 583.404 296.296 583.97 296.72 584.394C297.003 584.818 297.286 585.1 297.71 585.524C298.134 585.949 298.417 586.514 298.841 586.938C299.124 587.362 299.548 587.786 299.83 588.352C300.113 588.776 300.396 589.2 300.82 589.624C301.244 590.189 301.668 590.755 302.092 591.32C302.375 591.603 302.516 591.886 302.799 592.31C303.364 593.017 303.789 593.724 304.354 594.43C304.354 594.43 304.354 594.43 304.354 594.572C313.401 607.012 323.862 623.127 337.15 641.221C315.522 610.97 217.699 460.843 288.945 312.836C181.934 297.427 69.8332 368.109 15.1258 445.01C14.5604 450.664 13.9949 456.319 13.5708 461.973C13.5708 462.256 13.5708 462.398 13.5708 462.68C13.4295 464.801 13.2881 466.921 13.1468 469.183C13.1468 469.607 13.1468 470.031 13.0054 470.455C12.864 472.434 12.7227 474.413 12.7227 476.392C12.7227 476.958 12.7227 477.523 12.5813 478.089C12.4399 479.927 12.44 481.764 12.44 483.602C12.44 484.309 12.44 484.874 12.44 485.581C12.44 487.419 12.2986 489.115 12.2986 490.953C12.2986 491.66 12.2986 492.366 12.2986 492.932C12.2986 495.194 12.2986 497.597 12.2986 499.859C12.2986 500 12.2986 500.141 12.2986 500.283C12.2986 500.99 12.2986 501.838 12.2986 502.545C12.4399 521.487 13.5708 540.147 15.6913 558.383C18.9426 508.058 81.4249 395.109 111.111 407.973C140.373 420.696 61.6342 528.697 142.352 666.808C90.1894 510.744 170.625 339.553 227.735 346.056C228.159 346.056 228.442 346.056 228.866 346.197C235.793 347.328 237.913 351.145 237.207 357.648C234.945 377.721 205.683 423.664 202.431 495.901C202.29 500.566 202.149 505.372 202.149 510.32C202.29 525.163 203.704 540.712 206.531 556.686V556.828C206.672 557.676 206.814 558.524 206.955 559.231C212.185 586.514 221.657 615.069 236.217 643.907C281.029 732.966 374.187 824.569 537.32 888.323Z"
    fill="url(#paint5_linear_11_3)" />
  <path
    d="M500 1000C432.57 1000 366.978 986.712 305.343 960.701C245.83 935.538 192.395 899.491 146.452 853.548C100.509 807.605 64.4614 754.17 39.2988 694.656C13.2881 633.022 0 567.571 0 500C0 432.57 13.2881 366.978 39.2988 305.343C64.4614 245.83 100.509 192.395 146.452 146.452C192.395 100.509 245.83 64.4614 305.343 39.2988C366.978 13.2881 432.429 0 500 0C567.571 0 633.022 13.2881 694.656 39.2988C754.17 64.4614 807.605 100.509 853.548 146.452C899.491 192.395 935.538 245.83 960.701 305.343C986.712 366.978 1000 432.429 1000 500C1000 567.43 986.712 633.022 960.701 694.656C935.538 754.17 899.491 807.605 853.548 853.548C807.605 899.491 754.17 935.538 694.656 960.701C633.022 986.712 567.43 1000 500 1000ZM500 24.0317C237.489 24.0317 24.0317 237.489 24.0317 500C24.0317 762.51 237.489 975.968 500 975.968C762.51 975.968 975.968 762.51 975.968 500C975.968 237.489 762.51 24.0317 500 24.0317Z"
    fill="#40288B" />
  <defs>
    <linearGradient id="paint0_linear_11_3" x1="500" y1="1000" x2="500" y2="0" gradientUnits="userSpaceOnUse">
      <stop offset="0.483" stop-color="#5020A5" />
      <stop offset="1" stop-color="#ED52F9" />
    </linearGradient>
    <linearGradient id="paint1_linear_11_3" x1="500" y1="1000" x2="500" y2="356.659" gradientUnits="userSpaceOnUse">
      <stop offset="0.3333" stop-color="#1E0846" />
      <stop offset="1" stop-color="#6E19C7" />
    </linearGradient>
    <linearGradient id="paint2_linear_11_3" x1="493.541" y1="1000" x2="493.541" y2="374.801"
      gradientUnits="userSpaceOnUse">
      <stop offset="5.45714e-07" stop-color="#40288B" />
      <stop offset="1" stop-color="#7F5EC6" />
    </linearGradient>
    <linearGradient id="paint3_linear_11_3" x1="125.335" y1="672.858" x2="745.269" y2="672.858"
      gradientUnits="userSpaceOnUse">
      <stop offset="5.45714e-07" stop-color="#40288B" />
      <stop offset="1" stop-color="#7F5EC6" />
    </linearGradient>
    <linearGradient id="paint4_linear_11_3" x1="354.622" y1="156.904" x2="508.268" y2="381.801"
      gradientUnits="userSpaceOnUse">
      <stop offset="5.45714e-07" stop-color="#40288B" />
      <stop offset="1" stop-color="#7F5EC6" stop-opacity="0" />
    </linearGradient>
    <linearGradient id="paint5_linear_11_3" x1="140.241" y1="408.228" x2="350.052" y2="889.849"
      gradientUnits="userSpaceOnUse">
      <stop offset="5.45714e-07" stop-color="#A031DE" stop-opacity="0" />
      <stop offset="1" stop-color="#4D349B" />
    </linearGradient>
  </defs>
</svg>
