<svg width="100%" height="100%" viewBox="0 0 45 44" fill="none" xmlns="http://www.w3.org/2000/svg">
  <mask id="mask0_1463_2334" style="mask-type:luminance" maskUnits="userSpaceOnUse" x="7" y="6" width="31" height="31">
    <path
      d="M32.9834 10.9157C38.9122 16.8445 38.9121 26.4568 32.9833 32.3856C27.0545 38.3144 17.4422 38.3145 11.5134 32.3857C5.58461 26.4569 5.58453 16.8444 11.5133 10.9156C17.4421 4.98686 27.0546 4.98694 32.9834 10.9157Z"
      fill="currentColor" />
  </mask>
  <g mask="url(#mask0_1463_2334)">
    <path
      d="M19.9049 24.1217C21.4647 23.0284 22.4949 22.8476 24.6999 20.6427C27.7396 17.603 26.9324 16.7959 29.9721 13.7562C31.3887 12.3396 32.3193 11.7593 33.2177 11.2355M12.1374 33.1953C12.2674 33.0718 12.4022 32.9402 12.541 32.8014C15.2963 30.0461 14.8909 29.1252 17.0549 26.7131M9.59824 20.612C12.4628 17.7475 11.8171 17.1018 14.6824 14.2364C17.547 11.3719 18.1927 12.0176 21.0572 9.15302C22.1372 8.07307 22.7183 7.3079 23.1768 6.62183M22.3543 37.0551C23.109 36.5684 23.9234 35.9849 25.1365 34.7717C26.9027 33.0056 27.3343 32.0829 28.0771 30.9636M21.9709 12.8643C24.967 9.86815 28.1133 7.75505 28.1133 7.75505C28.1133 7.75505 30.9062 6.11526 34.7486 0.735821C36.9683 -2.37168 39.4099 -4.73257 41.0645 -5.98364M7.97831 27.0974C9.99213 25.4565 11.1706 24.9561 14.2127 21.9139C17.2284 18.8982 17.7472 17.7142 19.353 15.7327M27.0687 22.034C29.9349 19.1678 30.5805 19.8145 33.445 16.9499C34.5328 15.8622 35.1149 15.0939 35.575 14.4033C35.575 14.4033 38.2597 9.6951 44.6361 5.57868M18.72 36.6369C20.2587 35.3015 21.1 35.0673 22.5166 33.9258M57.8859 -13.9734C59.4457 -15.0667 60.4758 -15.2475 62.6808 -17.4525C65.7205 -20.4922 64.9133 -21.2993 67.953 -24.339C69.3696 -25.7556 70.3002 -26.3359 71.1985 -26.8597M33.2748 11.2279C38.0579 9.33189 39.9143 4.81181 45.2101 0.122634C45.3019 0.0413549 45.4748 -0.132423 45.6137 -0.271252C48.369 -3.02659 47.9636 -3.94746 50.1275 -6.35953M31.0278 -1.27421C33.8923 -4.13875 33.2466 -4.78447 36.112 -7.64983C38.9765 -10.5144 39.6222 -9.86866 42.4868 -12.7332C43.5667 -13.8132 44.1479 -14.5783 44.6063 -15.2644M39.8295 19.7262C42.7756 16.6187 45.4263 14.7425 46.181 14.2558C46.9357 13.7691 47.7501 13.1855 48.9632 11.9724C50.7293 10.2063 51.1611 9.28346 51.9039 8.16419M57.6689 -22.1489C60.665 -25.145 63.8113 -27.2581 63.8113 -27.2581C63.8113 -27.2581 66.6042 -28.8978 70.4467 -34.2773C72.6663 -37.3848 76.0967 -39.8062 77.4688 -40.0484M41.051 -5.97525C43.0648 -7.61617 44.2432 -8.11659 47.2853 -11.1587C50.3011 -14.1744 50.8198 -15.3584 52.4257 -17.34M58.8857 -9.89715C61.752 -12.7634 62.3975 -12.1167 65.2621 -14.9813C66.3499 -16.069 67.7309 -17.8646 68.191 -18.5552M38.6759 16.3889C39.1247 15.8006 39.8667 14.6876 41.3386 13.2487C47.256 7.46327 47.4002 7.5251 48.9389 6.1896C50.4777 4.8541 51.3189 4.62011 52.7355 3.47865"
      stroke="currentColor" stroke-width="1.5" stroke-linecap="round" stroke-linejoin="round" />
  </g>
  <path
    d="M32.3399 9.85355C36.791 8.94037 40.1202 9.33395 41.1756 11.2382C41.2101 11.3002 41.2419 11.3637 41.271 11.4282M3.51036 32.3593C3.47097 32.3003 3.43403 32.2397 3.39963 32.1776C2.34423 30.2734 3.77461 27.2416 6.90772 23.9508"
    stroke="currentColor" stroke-width="1.5" stroke-linecap="round" stroke-linejoin="round" />
  <path
    d="M37.4696 21.7077C37.4696 30.0923 30.6726 36.8893 22.288 36.8893C13.9035 36.8893 7.10645 30.0923 7.10645 21.7077C7.10645 13.3231 13.9035 6.52612 22.288 6.52612C30.6726 6.52612 37.4696 13.3231 37.4696 21.7077Z"
    stroke="currentColor" stroke-width="1.5" stroke-linecap="round" stroke-linejoin="round" />
  <path
    d="M41.1753 11.238C43.1649 14.8273 36.3214 22.4245 25.8899 28.2068C15.4584 33.9891 5.38904 35.7669 3.39941 32.1775"
    stroke="currentColor" stroke-width="1.5" stroke-linecap="round" stroke-linejoin="round" />
</svg>
