<svg xmlns="http://www.w3.org/2000/svg" width="500" height="500"
  style="width:100%;height:100%;transform:translate3d(0,0,0);content-visibility:visible" viewBox="0 0 500 500">
  <defs>
    <clipPath id="a">
      <path d="M0 0h500v500H0z" />
    </clipPath>
    <clipPath id="b">
      <path fill="#fff"
        d="M382.755 251.877c0 73.454-59.546 132.999-133 132.999-73.454 0-133-59.545-133-132.999s59.546-133.001 133-133.001c73.454 0 133 59.547 133 133.001" />
    </clipPath>
  </defs>
  <g clip-path="url(#a)">
    <path fill="none" stroke="#ffffff" stroke-linecap="round" stroke-linejoin="round" stroke-width="19.1"
      d="M0 0s0 0 0 0m0 0s0 0 0 0" style="display:block" transform="translate(116.465 117.599)" />
    <path fill="none" stroke="#ffffff" stroke-linecap="round" stroke-linejoin="round" stroke-width="19.1"
      d="M0 0s0 0 0 0m0 0s0 0 0 0" style="display:block" transform="translate(343.965 410.099)" />
    <path fill="none" stroke="#ffffff" stroke-linecap="round" stroke-linejoin="round" stroke-width="19.1"
      d="M0 0s0 0 0 0m0 0s0 0 0 0" style="display:block" transform="translate(382.965 383.099)" />
    <g clip-path="url(#b)" style="display:block" transform="rotate(-45 246.836 250.81)">
      <path fill="none" stroke="#ffffff" stroke-linecap="round" stroke-linejoin="round" stroke-width="12.04"
        d="M219.929 252.666c16.435 2.89 23.937 8.152 51.255 8.152 37.66 0 37.66-10 75.32-10 17.55 0 26.91 2.17 35.72 4.49m-266.62 5.449c1.57.04 3.22.06 4.94.06 34.137 0 37.33-8.216 65.677-9.753m-8.397-83.986c35.49 0 35.49-8 70.99-8 35.49 0 35.49 8 70.98 8 13.38 0 21.72-1.14 28.81-2.55m-193.62 183.43c7.69 1.66 16.35 3.09 31.38 3.09 21.881 0 30.271-3.042 41.806-5.374m74.294-149.946c37.12 0 69.7 6.4 69.7 6.4s27.459 7.143 84.586-2.378c33-5.5 62.75-5 80.75-2.5m-409.886-.032c22.64 2.31 33.04 6.51 70.73 6.51 37.363 0 47.911-4.121 70.134-6.448m8.761 86.831c35.511 0 35.504 8.005 70.994 8.005 13.477 0 21.842-1.153 28.97-2.581 0 0 45.797-12.535 110.797 1.465m-352.939 31.854c17.805 1.259 24.467 5.02 40.313 6.724m515.823-77.619c16.435 2.89 23.937 8.151 51.255 8.151 37.66 0 37.66-10 75.32-10 17.55 0 26.91 2.17 35.72 4.49m-470.867 1.015C424 273.5 463.5 256.999 525.354 260.757c1.072.065 3.22.06 4.94.06 34.137 0 37.33-8.216 65.677-9.753m-149.819-86.815c35.49 0 35.49-8 70.99-8 35.49 0 35.49 8 70.98 8 13.38 0 21.72-1.14 28.81-2.55M370.585 348.864c37.5-1 65.543 3.798 73.233 5.458 7.69 1.66 16.35 3.09 31.38 3.09 21.881 0 30.272-3.042 41.807-5.374M740.498 199.97c37.12 0 69.7 6.4 69.7 6.4s27.459 7.144 84.586-2.377c33-5.5 69.25.75 79.25 7.75m-436.67-14.525c22.64 2.31 33.04 6.51 70.73 6.51 37.363 0 47.911-4.121 70.134-6.448m-6.088 86.124c35.511 0 35.504 8.005 70.994 8.005 13.477 0 33.155-2.568 40.283-3.996m-399.305 33.631c6.425-.864 17.916-3.162 35.947-2.958 72.496.818 73.006 2.094 90.811 3.353 17.805 1.259 24.466 5.021 40.312 6.725" />
    </g>
    <path fill="none" stroke="#ffffff" stroke-linecap="round" stroke-linejoin="round" stroke-width="12.04"
      d="M338.064 146.149c38.994-8 68.16-4.552 77.406 12.13 0 0 0 0 0 0 .302.544.581 1.1.836 1.665M85.499 343.313a22.638 22.638 0 0 1-.97-1.591c-9.246-16.682 3.285-43.243 30.733-72.072"
      style="display:block" />
    <path fill="none" stroke="#ffffff" stroke-linecap="round" stroke-linejoin="round" stroke-width="12.04"
      d="M133 0c0 73.454-59.546 133-133 133-73.454 0-133-59.546-133-133 0-73.454 59.546-133 133-133 73.454 0 133 59.546 133 133z"
      style="display:block" transform="translate(250 250)" />
    <path fill="none" stroke="#ffffff" stroke-linecap="round" stroke-linejoin="round" stroke-width="12.04"
      d="M189.191 0c0 35.953-84.704 65.098-189.191 65.098-104.487 0-189.191-29.145-189.191-65.098 0 0 0 0 0 0"
      style="display:block" transform="rotate(-29 608.34 -358.34)" />
    <g class="com" style="display:none">
      <path />
      <path />
      <path />
      <path />
      <path />
      <path />
      <path />
      <path />
      <path />
      <path />
      <path />
      <path />
    </g>
  </g>
</svg>
