<svg width="70" height="70" viewBox="0 0 70 70" fill="none" xmlns="http://www.w3.org/2000/svg">
<rect width="70" height="70" rx="16" fill="#495057"/>
<g clip-path="url(#clip0_1708_9421)">
<path d="M53.0264 17.3674C52.7931 17.134 52.5931 16.934 52.3598 16.734L47.3273 22.1679C47.4939 22.3013 47.6273 22.468 47.7939 22.6013C54.8261 29.4687 54.9927 40.7366 48.1272 47.7706C41.2616 54.8047 29.9969 54.9714 22.9647 48.104C22.8314 48.004 22.7314 47.8707 22.6314 47.7706C22.4648 47.604 22.3315 47.4706 22.1982 47.3039L16.7324 52.3711C16.9324 52.6045 17.1657 52.8045 17.3657 53.0379C27.464 62.6389 43.428 62.2722 53.0264 52.1711C62.3248 42.4367 62.3248 27.1018 53.0264 17.3674Z" fill="url(#paint0_linear_1708_9421)"/>
<path d="M29.3301 18.4009L26.8972 11.4001C26.3306 11.6002 25.7307 11.8335 25.1641 12.0669L28.1303 18.8676C28.5302 18.7009 28.8968 18.5342 29.3301 18.4009Z" fill="url(#paint1_linear_1708_9421)"/>
<path d="M35.1301 17.4341L35.0635 10C34.4636 10 33.8304 10.0333 33.2305 10.0667L33.797 17.4675C34.2303 17.4341 34.6969 17.4341 35.1301 17.4341Z" fill="url(#paint2_linear_1708_9421)"/>
<path d="M26.6638 19.601L23.0977 13.1003C22.5645 13.4004 22.0312 13.7337 21.498 14.0671L25.5306 20.3011C25.8972 20.0344 26.2639 19.801 26.6638 19.601Z" fill="url(#paint3_linear_1708_9421)"/>
<path d="M24.1982 21.2344L19.599 15.4005C19.1324 15.7672 18.6325 16.1673 18.1992 16.6006L23.1984 22.0678C23.5317 21.7678 23.865 21.5011 24.1982 21.2344Z" fill="url(#paint4_linear_1708_9421)"/>
<path d="M46.0605 21.1012L50.5931 15.2339C50.0932 14.8672 49.5933 14.5005 49.0934 14.1671L44.9941 20.3678C45.3607 20.6011 45.7273 20.8345 46.0605 21.1012Z" fill="url(#paint5_linear_1708_9421)"/>
<path d="M43.5943 19.501L47.0604 12.967C46.5271 12.6669 45.9606 12.4002 45.394 12.1669L42.3945 18.9342C42.8278 19.1009 43.1944 19.301 43.5943 19.501Z" fill="url(#paint6_linear_1708_9421)"/>
<path d="M39.228 10.3333C38.6281 10.2333 37.9948 10.1666 37.3949 10.1L36.7617 17.5008C37.195 17.5341 37.6282 17.6008 38.0615 17.6674L39.228 10.3333Z" fill="url(#paint7_linear_1708_9421)"/>
<path d="M43.2615 11.3334C42.6949 11.1334 42.095 10.9667 41.4951 10.8L39.6621 17.9675C40.0954 18.0675 40.4953 18.2008 40.9286 18.3342L43.2615 11.3334Z" fill="url(#paint8_linear_1708_9421)"/>
<path d="M32.1971 17.6675L30.9306 10.3334C30.3307 10.4334 29.6975 10.5667 29.1309 10.7001L30.9306 17.9008C31.3306 17.8342 31.7638 17.7675 32.1971 17.6675Z" fill="url(#paint9_linear_1708_9421)"/>
<path d="M17.465 36.7695L10.0996 37.4362C10.1663 38.0363 10.2329 38.6697 10.3329 39.2697L17.665 38.103C17.565 37.6362 17.5317 37.2029 17.465 36.7695Z" fill="url(#paint10_linear_1708_9421)"/>
<path d="M17.9663 39.6698L10.8008 41.5366C10.9674 42.1367 11.1341 42.7368 11.334 43.3035L18.3329 40.9366C18.1995 40.5032 18.0996 40.1032 17.9663 39.6698Z" fill="url(#paint11_linear_1708_9421)"/>
<path d="M22.064 23.2348L16.5982 18.2343C16.165 18.6676 15.765 19.1677 15.3984 19.6344L21.2308 24.2349C21.4641 23.9016 21.764 23.5682 22.064 23.2348Z" fill="url(#paint12_linear_1708_9421)"/>
<path d="M20.3648 45.037L14.1992 49.1375C14.5325 49.6375 14.8991 50.1709 15.2657 50.6376L21.1314 46.1038C20.8648 45.7371 20.5981 45.3704 20.3648 45.037Z" fill="url(#paint13_linear_1708_9421)"/>
<path d="M18.9315 42.4366L12.166 45.437C12.3993 46.0037 12.6993 46.5704 12.9992 47.1038L19.5314 43.6034C19.2982 43.2367 19.1315 42.8367 18.9315 42.4366Z" fill="url(#paint14_linear_1708_9421)"/>
<path d="M18.8658 28.1353L12.0669 25.2017C11.8337 25.7684 11.6004 26.3352 11.4004 26.9352L18.3992 29.3688C18.5325 28.9688 18.6992 28.5354 18.8658 28.1353Z" fill="url(#paint15_linear_1708_9421)"/>
<path d="M17.4654 33.8357L10.0667 33.269C10.0333 33.9024 10 34.5025 10 35.1359L17.4321 35.1692C17.4321 34.7358 17.4321 34.3025 17.4654 33.8357Z" fill="url(#paint16_linear_1708_9421)"/>
<path d="M20.2651 25.5683L14.0328 21.5345C13.6995 22.0679 13.3662 22.6013 13.0996 23.1347L19.5985 26.6684C19.7985 26.3017 20.0318 25.935 20.2651 25.5683Z" fill="url(#paint17_linear_1708_9421)"/>
<path d="M17.9326 30.9355L10.7338 29.1687C10.6005 29.7687 10.4672 30.3688 10.3672 30.9689L17.666 32.2023C17.7326 31.769 17.8326 31.3356 17.9326 30.9355Z" fill="url(#paint18_linear_1708_9421)"/>
<path d="M35.1949 41.37C38.6001 41.37 41.3605 38.6088 41.3605 35.2027C41.3605 31.7965 38.6001 29.0353 35.1949 29.0353C31.7897 29.0353 29.0293 31.7965 29.0293 35.2027C29.0293 38.6088 31.7897 41.37 35.1949 41.37Z" fill="url(#paint19_linear_1708_9421)"/>
</g>
<defs>
<linearGradient id="paint0_linear_1708_9421" x1="35.0002" y1="9.99997" x2="35.0002" y2="60" gradientUnits="userSpaceOnUse">
<stop stop-color="#FF7F2F"/>
<stop offset="1" stop-color="#C74C00"/>
</linearGradient>
<linearGradient id="paint1_linear_1708_9421" x1="35" y1="10" x2="35" y2="60" gradientUnits="userSpaceOnUse">
<stop stop-color="#FF7F2F"/>
<stop offset="1" stop-color="#C74C00"/>
</linearGradient>
<linearGradient id="paint2_linear_1708_9421" x1="35.001" y1="10" x2="35.001" y2="60" gradientUnits="userSpaceOnUse">
<stop stop-color="#FF7F2F"/>
<stop offset="1" stop-color="#C74C00"/>
</linearGradient>
<linearGradient id="paint3_linear_1708_9421" x1="34.9999" y1="10" x2="34.9999" y2="60" gradientUnits="userSpaceOnUse">
<stop stop-color="#FF7F2F"/>
<stop offset="1" stop-color="#C74C00"/>
</linearGradient>
<linearGradient id="paint4_linear_1708_9421" x1="35.0006" y1="9.99994" x2="35.0006" y2="59.9999" gradientUnits="userSpaceOnUse">
<stop stop-color="#FF7F2F"/>
<stop offset="1" stop-color="#C74C00"/>
</linearGradient>
<linearGradient id="paint5_linear_1708_9421" x1="34.9999" y1="10" x2="34.9999" y2="60" gradientUnits="userSpaceOnUse">
<stop stop-color="#FF7F2F"/>
<stop offset="1" stop-color="#C74C00"/>
</linearGradient>
<linearGradient id="paint6_linear_1708_9421" x1="34.9999" y1="9.99998" x2="34.9999" y2="60" gradientUnits="userSpaceOnUse">
<stop stop-color="#FF7F2F"/>
<stop offset="1" stop-color="#C74C00"/>
</linearGradient>
<linearGradient id="paint7_linear_1708_9421" x1="34.9995" y1="9.99996" x2="34.9995" y2="60" gradientUnits="userSpaceOnUse">
<stop stop-color="#FF7F2F"/>
<stop offset="1" stop-color="#C74C00"/>
</linearGradient>
<linearGradient id="paint8_linear_1708_9421" x1="35.0004" y1="9.99996" x2="35.0004" y2="60" gradientUnits="userSpaceOnUse">
<stop stop-color="#FF7F2F"/>
<stop offset="1" stop-color="#C74C00"/>
</linearGradient>
<linearGradient id="paint9_linear_1708_9421" x1="35.0008" y1="10" x2="35.0008" y2="60" gradientUnits="userSpaceOnUse">
<stop stop-color="#FF7F2F"/>
<stop offset="1" stop-color="#C74C00"/>
</linearGradient>
<linearGradient id="paint10_linear_1708_9421" x1="34.9996" y1="10" x2="34.9996" y2="60" gradientUnits="userSpaceOnUse">
<stop stop-color="#FF7F2F"/>
<stop offset="1" stop-color="#C74C00"/>
</linearGradient>
<linearGradient id="paint11_linear_1708_9421" x1="35.0009" y1="9.99999" x2="35.0009" y2="60" gradientUnits="userSpaceOnUse">
<stop stop-color="#FF7F2F"/>
<stop offset="1" stop-color="#C74C00"/>
</linearGradient>
<linearGradient id="paint12_linear_1708_9421" x1="34.9993" y1="10.0001" x2="34.9993" y2="60.0001" gradientUnits="userSpaceOnUse">
<stop stop-color="#FF7F2F"/>
<stop offset="1" stop-color="#C74C00"/>
</linearGradient>
<linearGradient id="paint13_linear_1708_9421" x1="34.9999" y1="9.99998" x2="34.9999" y2="60" gradientUnits="userSpaceOnUse">
<stop stop-color="#FF7F2F"/>
<stop offset="1" stop-color="#C74C00"/>
</linearGradient>
<linearGradient id="paint14_linear_1708_9421" x1="34.9997" y1="9.99993" x2="34.9997" y2="60" gradientUnits="userSpaceOnUse">
<stop stop-color="#FF7F2F"/>
<stop offset="1" stop-color="#C74C00"/>
</linearGradient>
<linearGradient id="paint15_linear_1708_9421" x1="35.0006" y1="10.0001" x2="35.0006" y2="60.0001" gradientUnits="userSpaceOnUse">
<stop stop-color="#FF7F2F"/>
<stop offset="1" stop-color="#C74C00"/>
</linearGradient>
<linearGradient id="paint16_linear_1708_9421" x1="35" y1="9.99994" x2="35" y2="59.9999" gradientUnits="userSpaceOnUse">
<stop stop-color="#FF7F2F"/>
<stop offset="1" stop-color="#C74C00"/>
</linearGradient>
<linearGradient id="paint17_linear_1708_9421" x1="35.0001" y1="10" x2="35.0001" y2="60" gradientUnits="userSpaceOnUse">
<stop stop-color="#FF7F2F"/>
<stop offset="1" stop-color="#C74C00"/>
</linearGradient>
<linearGradient id="paint18_linear_1708_9421" x1="35.0006" y1="10" x2="35.0006" y2="60" gradientUnits="userSpaceOnUse">
<stop stop-color="#FF7F2F"/>
<stop offset="1" stop-color="#C74C00"/>
</linearGradient>
<linearGradient id="paint19_linear_1708_9421" x1="34.9991" y1="9.99998" x2="34.9991" y2="60" gradientUnits="userSpaceOnUse">
<stop stop-color="#FF7F2F"/>
<stop offset="1" stop-color="#C74C00"/>
</linearGradient>
<clipPath id="clip0_1708_9421">
<rect width="50" height="50" fill="white" transform="translate(10 10)"/>
</clipPath>
</defs>
</svg>
