<svg width="100%" height="100%" viewBox="0 0 70 64" fill="none" xmlns="http://www.w3.org/2000/svg">
<g id="React-icon 1" clip-path="url(#clip0_920_3307)">
<path id="Vector" d="M35.0008 38.2388C38.4466 38.2388 41.24 35.4454 41.24 31.9996C41.24 28.5539 38.4466 25.7605 35.0008 25.7605C31.5551 25.7605 28.7617 28.5539 28.7617 31.9996C28.7617 35.4454 31.5551 38.2388 35.0008 38.2388Z" fill="#61DAFB"/>
<g id="Group">
<path id="Vector_2" d="M35.0017 44.7825C53.4912 44.7825 68.48 39.0595 68.48 31.9999C68.48 24.9403 53.4912 19.2173 35.0017 19.2173C16.5122 19.2173 1.52344 24.9403 1.52344 31.9999C1.52344 39.0595 16.5122 44.7825 35.0017 44.7825Z" stroke="#61DAFB" stroke-width="3.04348"/>
<path id="Vector_3" d="M23.931 38.3912C33.1758 54.4036 45.6264 64.5228 51.7402 60.993C57.8541 57.4631 55.3159 41.621 46.0712 25.6086C36.8264 9.59622 24.3758 -0.522915 18.262 3.0069C12.1481 6.53673 14.6863 22.3788 23.931 38.3912Z" stroke="#61DAFB" stroke-width="3.04348"/>
<path id="Vector_4" d="M23.9313 25.6085C14.6865 41.6209 12.1484 57.463 18.2622 60.9928C24.3761 64.5226 36.8267 54.4035 46.0714 38.3911C55.3162 22.3787 57.8543 6.53659 51.7405 3.00677C45.6267 -0.523053 33.1761 9.59608 23.9313 25.6085Z" stroke="#61DAFB" stroke-width="3.04348"/>
</g>
</g>
<defs>
<clipPath id="clip0_920_3307">
<rect width="70" height="62.2802" fill="white" transform="translate(0 0.859863)"/>
</clipPath>
</defs>
</svg>
